<?xml version="1.0" encoding="utf-8"?>
<!-- Generator: Adobe Illustrator 19.0.0, SVG Export Plug-In . SVG Version: 6.00 Build 0)  -->
<svg version="1.1" id="Layer_1" xmlns="http://www.w3.org/2000/svg" xmlns:xlink="http://www.w3.org/1999/xlink" x="0px" y="0px"
	 viewBox="0 0 64.5 57.5" style="enable-background:new 0 0 64.5 57.5;" xml:space="preserve">
<path id="XMLID_2_" d="M64.2,31.7L33,0.3c-0.4-0.4-1.2-0.4-1.6,0L0.3,31.7C0,32-0.1,32.5,0.1,32.9c0.2,0.4,0.6,0.7,1,0.7h5v22.8
	c0,0.6,0.5,1.1,1.1,1.1h50.1c0.6,0,1.1-0.5,1.1-1.1V33.6h5c0.4,0,0.8-0.3,1-0.7C64.6,32.5,64.5,32,64.2,31.7L64.2,31.7z M26.6,14.5
	h11.3l3.9,3.9H22.7L26.6,14.5L26.6,14.5z M28.8,12.3l3.4-3.5l3.4,3.5H28.8L28.8,12.3z M20.5,20.6H44l3.9,3.9h-3.3v-0.6
	c0-0.6-0.5-1.1-1.1-1.1h-6.3c-0.6,0-1.1,0.5-1.1,1.1v0.6h-7.5v-0.6c0-0.6-0.5-1.1-1.1-1.1H21c-0.6,0-1.1,0.5-1.1,1.1v0.6h-3.3
	L20.5,20.6L20.5,20.6z M33.4,39.1v16.2H31V39.1H33.4L33.4,39.1z M8.3,36.8v-3.9l0,0h11.6v0.6c0,0.6,0.5,1.1,1.1,1.1h6.3
	c0.6,0,1.1-0.5,1.1-1.1v-0.6H36v0.6c0,0.6,0.5,1.1,1.1,1.1h6.3c0.6,0,1.1-0.5,1.1-1.1v-0.6h11.6l0,0v3.9H8.3L8.3,36.8z M24.2,43H8.3
	v-3.9h15.9V43L24.2,43z M8.3,45.2h15.9v3.9H8.3V45.2L8.3,45.2z M22.1,32.4v-7.4h4.1v7.4H22.1L22.1,32.4z M28.5,26.8H36v3.9h-7.5
	V26.8L28.5,26.8z M38.2,32.4v-7.4h4.1v7.4H38.2L38.2,32.4z M40.3,39.1h15.9V43H40.3V39.1L40.3,39.1z M40.3,45.2h15.9v3.9H40.3V45.2
	L40.3,45.2z M44.5,30.7v-3.9H50c0,0,0,0,0,0l3.9,3.9H44.5L44.5,30.7z M14.4,26.8h5.5v3.9h-9.4L14.4,26.8L14.4,26.8z M8.3,51.3h15.9
	v3.9H8.3V51.3L8.3,51.3z M26.4,39.1h2.4v16.2h-2.4V39.1L26.4,39.1z M35.6,55.3V39.1H38v16.2H35.6L35.6,55.3z M40.3,55.3v-3.9h15.9
	v3.9H40.3L40.3,55.3z M57.7,31.4L33,6.5c-0.4-0.4-1.2-0.4-1.6,0L6.7,31.4h-3L32.2,2.7l28.5,28.7H57.7L57.7,31.4z"/>
</svg>
