<?xml version="1.0" encoding="utf-8"?>
<!-- Generator: Adobe Illustrator 19.0.0, SVG Export Plug-In . SVG Version: 6.00 Build 0)  -->
<svg version="1.1" id="Layer_1" xmlns="http://www.w3.org/2000/svg" xmlns:xlink="http://www.w3.org/1999/xlink" x="0px" y="0px"
	 viewBox="0 0 53.9 57.5" style="enable-background:new 0 0 53.9 57.5;" xml:space="preserve">
<path d="M23.5,55.3h8.1V20c-1.1-0.7-1.9-1.8-2.2-3h-3.8c-0.3,1.2-1.1,2.3-2.2,3V55.3L23.5,55.3z M32.7,57.5H22.4
	c-0.6,0-1.1-0.5-1.1-1.1V19.3c0-0.4,0.3-0.8,0.7-1c1-0.4,1.6-1.4,1.6-2.4c0-0.6,0.5-1.1,1.1-1.1h5.7c0.6,0,1.1,0.5,1.1,1.1
	c0,1.1,0.6,2,1.6,2.4c0.4,0.2,0.7,0.6,0.7,1v37.1C33.8,57,33.3,57.5,32.7,57.5L32.7,57.5z M27.6,12.2c-1.6,0-3-0.8-3.8-2.2
	c-0.8-1.4-0.8-3.1,0-4.5l2.9-4.9c0.2-0.3,0.6-0.6,1-0.6c0.4,0,0.8,0.2,1,0.6c0.8,1.4,2.9,5,2.9,5c0.8,1.4,0.8,3.1,0,4.5
	C30.6,11.4,29.2,12.2,27.6,12.2L27.6,12.2z M27.6,3.3l-1.9,3.3c-0.4,0.8-0.4,1.6,0,2.3C26,9.6,26.7,10,27.6,10
	c0.8,0,1.5-0.4,1.9-1.1c0.4-0.7,0.4-1.6,0-2.3l-0.3-0.5L27.6,3.3L27.6,3.3z M17.2,57.5H1.1C0.5,57.5,0,57,0,56.4V39.6
	c0-0.6,0.5-1.1,1.1-1.1h16.1c0.6,0,1.1,0.5,1.1,1.1v16.8C18.3,57,17.8,57.5,17.2,57.5L17.2,57.5z M2.2,55.3h13.9V40.7H2.2V55.3
	L2.2,55.3z M52.8,57.5H37.9c-0.6,0-1.1-0.5-1.1-1.1V29.6c0-0.6,0.5-1.1,1.1-1.1h14.8c0.6,0,1.1,0.5,1.1,1.1v26.8
	C53.9,57,53.4,57.5,52.8,57.5L52.8,57.5z M39,55.3h12.6V30.7H39V55.3L39,55.3z M45.3,26.9c-1.6,0-3-0.8-3.8-2.2
	c-0.8-1.4-0.8-3.1,0-4.5l2.9-4.9c0.2-0.3,0.6-0.6,1-0.6c0.4,0,0.8,0.2,1,0.6c0.8,1.4,2.9,5,2.9,5c0.8,1.4,0.8,3.1,0,4.5
	C48.4,26.1,46.9,26.9,45.3,26.9L45.3,26.9z M45.3,18l-1.9,3.3c-0.4,0.8-0.4,1.6,0,2.3c0.4,0.7,1.1,1.1,1.9,1.1
	c0.8,0,1.5-0.4,1.9-1.1c0.4-0.7,0.4-1.6,0-2.3L47,20.9L45.3,18L45.3,18z M9.2,36.9c-1.6,0-3-0.8-3.8-2.2c-0.8-1.4-0.8-3.1,0-4.5
	l2.9-4.9c0.2-0.3,0.6-0.6,1-0.6c0.4,0,0.8,0.2,1,0.6c0.8,1.3,2.9,5,2.9,5c0.8,1.4,0.8,3.1,0,4.5C12.2,36.1,10.8,36.9,9.2,36.9
	L9.2,36.9z M9.2,28l-1.9,3.3c-0.4,0.8-0.4,1.6,0,2.3c0.4,0.7,1.1,1.1,1.9,1.1c0.8,0,1.5-0.4,1.9-1.1c0.4-0.7,0.4-1.6,0-2.3l-0.3-0.5
	L9.2,28L9.2,28z"/>
</svg>
