<?xml version="1.0" encoding="utf-8"?>
<!-- Generator: Adobe Illustrator 19.0.0, SVG Export Plug-In . SVG Version: 6.00 Build 0)  -->
<svg version="1.1" id="Layer_1" xmlns="http://www.w3.org/2000/svg" xmlns:xlink="http://www.w3.org/1999/xlink" x="0px" y="0px"
	 viewBox="0 0 67.9 67.3" style="enable-background:new 0 0 67.9 67.3;" xml:space="preserve">
<path id="XMLID_2_" d="M24.9,5.2C22.2,5.2,20,6.9,20,9c0,0.8,0.4,1.6,1,2.2c1.1-0.8,2.5-1.4,4-1.4c1.5,0,2.9,0.5,4,1.4
	c0.6-0.6,1-1.4,1-2.2C29.9,6.9,27.6,5.2,24.9,5.2L24.9,5.2z M24.9,20.6c2.4,0,4.3-1.9,4.3-4.3c0-2.4-1.9-4.3-4.3-4.3
	c-2.4,0-4.3,1.9-4.3,4.3C20.6,18.7,22.5,20.6,24.9,20.6L24.9,20.6z M19.5,12.8c-1.1-1-1.7-2.4-1.7-3.8C17.7,5.7,21,3,24.9,3
	c3.9,0,7.2,2.7,7.2,5.9c0,1.5-0.6,2.8-1.7,3.8c0.7,1,1.1,2.2,1.1,3.5c0,3.6-2.9,6.5-6.5,6.5c-3.6,0-6.5-2.9-6.5-6.5
	C18.4,15.1,18.8,13.8,19.5,12.8L19.5,12.8z M46,9.3c0.3,0,0.6,0.2,0.8,0.5c4.6,6.4,3.8,15.2-1.8,20.8c-2.6,2.6-5.9,4.2-9.4,4.6v31
	c0,0.6-0.5,1.1-1.1,1.1H15.3c-0.6,0-1.1-0.5-1.1-1.1v-31c-3.6-0.4-6.9-2-9.4-4.6C-0.8,25-1.6,16.2,3,9.8c0.2-0.3,0.5-0.4,0.8-0.5
	c0.3,0,0.6,0.1,0.9,0.3L19,24l2.2-0.7c0.5-0.2,1.1,0.1,1.3,0.5l2.4,4.4l2.4-4.4c0.3-0.5,0.8-0.7,1.3-0.5l2.2,0.7L45.1,9.7
	C45.4,9.4,45.7,9.3,46,9.3L46,9.3z M6.3,29c2.2,2.2,4.9,3.5,7.9,3.9v-6.6c0-0.5,0.3-0.9,0.8-1l1.7-0.6L4.1,12.2
	C0.9,17.6,1.8,24.5,6.3,29L6.3,29z M33.4,65.1v-38l-4.6-1.5L25.9,31c-0.2,0.4-0.6,0.6-1,0.6c-0.4,0-0.8-0.2-1-0.6L21,25.6l-4.6,1.5
	v38H33.4L33.4,65.1z M43.5,29c4.5-4.5,5.4-11.4,2.2-16.8L33.2,24.8l1.7,0.6c0.5,0.1,0.8,0.6,0.8,1V33C38.6,32.5,41.3,31.2,43.5,29
	L43.5,29z M26,36.3v3.1h3.1c0.6,0,1.1,0.5,1.1,1.1c0,0.6-0.5,1.1-1.1,1.1H26V49c0,0.6-0.5,1.1-1.1,1.1c-0.6,0-1.1-0.5-1.1-1.1v-7.4
	h-3.1c-0.6,0-1.1-0.5-1.1-1.1c0-0.6,0.5-1.1,1.1-1.1h3.1v-3.1c0-0.6,0.5-1.1,1.1-1.1C25.5,35.2,26,35.7,26,36.3L26,36.3z M66.8,9.9
	c0.6,0,1.1,0.5,1.1,1.1c0,0.6-0.5,1.1-1.1,1.1h-4.5l1.1,1.1c0.4,0.4,0.4,1.1,0,1.6c-0.2,0.2-0.5,0.3-0.8,0.3S62,15,61.8,14.7
	l-1.1-1.1v7.2c0,0.6-0.5,1.1-1.1,1.1c-0.6,0-1.1-0.5-1.1-1.1v-7.2l-1.1,1.1c-0.2,0.2-0.5,0.3-0.8,0.3c-0.3,0-0.6-0.1-0.8-0.3
	c-0.4-0.4-0.4-1.1,0-1.6l1.1-1.1h-4.5c-0.6,0-1.1-0.5-1.1-1.1c0-0.6,0.5-1.1,1.1-1.1h4.5l-1.1-1.1c-0.4-0.4-0.4-1.1,0-1.6
	c0.4-0.4,1.1-0.4,1.6,0l1.1,1.1V1.1C58.5,0.5,59,0,59.6,0c0.6,0,1.1,0.5,1.1,1.1v7.2l1.1-1.1c0.4-0.4,1.1-0.4,1.6,0
	c0.4,0.4,0.4,1.1,0,1.6l-1.1,1.1H66.8L66.8,9.9z"/>
</svg>
