<?xml version="1.0" encoding="utf-8"?>
<!-- Generator: Adobe Illustrator 16.0.0, SVG Export Plug-In . SVG Version: 6.00 Build 0)  -->
<!DOCTYPE svg PUBLIC "-//W3C//DTD SVG 1.1//EN" "http://www.w3.org/Graphics/SVG/1.1/DTD/svg11.dtd">
<svg version="1.1" id="Layer_1" xmlns="http://www.w3.org/2000/svg" xmlns:xlink="http://www.w3.org/1999/xlink" x="0px" y="0px"
	 width="866.694px" height="1000.5px" viewBox="66.179 -0.25 866.694 1000.5" enable-background="new 66.179 -0.25 866.694 1000.5"
	 xml:space="preserve">
<g id="XMLID_1_">
	<g>
		<path fill="#D1AF05" d="M372.17,848.7h253.92c-6.96,62.6-60.87,113.04-126.96,113.04S379.13,913.04,372.17,848.7z"/>
		<path fill="#D1AF05" d="M608.7,40v67.83C573.91,95.65,537.39,88.7,499.13,88.7s-74.78,6.95-109.56,19.13V40h1.73
			c0-1.74,1.74-1.74,1.74-1.74h213.92C608.7,38.26,608.7,40,608.7,40z"/>
		<path fill="#FFDD00" d="M871.3,808.7H131.84c71.86-88.561,89.08-211.72,95.99-408.7c0-149.57,121.74-273.04,273.04-273.04
			c149.56,0,273.04,121.74,273.04,273.04C779.13,596.52,796.52,721.74,871.3,808.7z"/>
		<path d="M925.22,813.91c5.21,3.479,8.69,8.7,6.95,15.66c0,5.21-2.17,10-5.65,13.479c-3.479,3.47-8.26,5.65-13.479,5.65H664.35
			c-6.96,85.21-78.26,151.3-165.22,151.3c-85.22,0-158.26-66.09-165.22-151.3H85.22c-6.96,0-13.92-5.22-17.39-12.181
			c-3.48-6.949,0-15.649,5.21-20.869c90.44-81.74,109.57-203.48,116.53-417.391c0-118.26,66.08-220.87,163.47-273.04V40
			c0-20.87,17.39-40,40-40h213.92c20.87,0,40,17.39,40,40v86.96C744.35,179.13,810.43,281.74,810.43,400
			C817.39,610.43,836.52,733.91,925.22,813.91z M131.84,808.7H871.3c-74.78-86.96-92.17-212.181-97.39-408.7
			c0-151.3-123.48-273.04-273.04-273.04c-151.3,0-273.04,123.47-273.04,273.04C220.92,596.98,203.7,720.14,131.84,808.7h-1.41v1.729
			C130.9,809.86,131.37,809.28,131.84,808.7z M626.09,848.7H372.17c6.96,64.34,60.87,113.04,126.96,113.04
			S619.13,911.3,626.09,848.7z M608.7,107.83V40c0,0,0-1.74-1.74-1.74H393.04c0,0-1.74,0-1.74,1.74h-1.73v67.83
			c34.78-12.18,71.3-19.13,109.56-19.13S573.91,95.65,608.7,107.83z"/>
		<path d="M131.84,808.7c-0.47,0.58-0.94,1.16-1.41,1.729V808.7H131.84z"/>
	</g>
	<g>
	</g>
</g>
</svg>
