<?xml version="1.0" encoding="utf-8"?>
<!-- Generator: Adobe Illustrator 19.0.0, SVG Export Plug-In . SVG Version: 6.00 Build 0)  -->
<svg version="1.1" id="Layer_1" xmlns="http://www.w3.org/2000/svg" xmlns:xlink="http://www.w3.org/1999/xlink" x="0px" y="0px"
	 viewBox="0 0 41.4 57.5" style="enable-background:new 0 0 41.4 57.5;" xml:space="preserve">
<path d="M22.8,46.7h-4.3v8.6h4.3V46.7L22.8,46.7z M40.3,46.7H25v9.7c0,0.6-0.5,1.1-1.1,1.1h-6.5c-0.6,0-1.1-0.5-1.1-1.1v-9.7H1.1
	c-0.4,0-0.8-0.2-1-0.6c-0.2-0.4-0.1-0.8,0.1-1.2l10.5-13H3.9c-0.4,0-0.8-0.2-1-0.6c-0.2-0.4-0.1-0.8,0.1-1.2l10.5-13H6.7
	c-0.4,0-0.8-0.3-1-0.7c-0.2-0.4-0.1-0.9,0.2-1.2l14-14.8c0.4-0.4,1.2-0.4,1.6,0l14,14.8c0.3,0.3,0.4,0.8,0.2,1.2
	c-0.2,0.4-0.6,0.7-1,0.7h-6.8l10.5,13c0.3,0.3,0.3,0.8,0.1,1.2c-0.2,0.4-0.6,0.6-1,0.6h-6.8L41,44.7c0.2,0.2,0.3,0.5,0.3,0.8
	C41.4,46.2,40.9,46.7,40.3,46.7L40.3,46.7z M3.4,44.4h34.5l-10.5-13c-0.3-0.3-0.3-0.8-0.1-1.2c0.2-0.4,0.6-0.6,1-0.6h6.8l-10.5-13
	c-0.3-0.3-0.3-0.8-0.1-1.2c0.2-0.4,0.6-0.6,1-0.6h6.6L20.7,2.7L9.3,14.8h6.6c0.4,0,0.8,0.2,1,0.6c0.2,0.4,0.1,0.8-0.1,1.2l-10.5,13
	h6.8c0.4,0,0.8,0.2,1,0.6c0.2,0.4,0.1,0.8-0.1,1.2L3.4,44.4L3.4,44.4z"/>
</svg>
