<?xml version="1.0" encoding="utf-8"?>
<!-- Generator: Adobe Illustrator 19.0.0, SVG Export Plug-In . SVG Version: 6.00 Build 0)  -->
<svg version="1.1" id="Layer_1" xmlns="http://www.w3.org/2000/svg" xmlns:xlink="http://www.w3.org/1999/xlink" x="0px" y="0px"
	 viewBox="0 0 49.9 57.5" style="enable-background:new 0 0 49.9 57.5;" xml:space="preserve">
<path id="XMLID_2_" d="M49.4,46.8c-5.1-4.6-6.2-11.7-6.6-23.8c0-6.8-3.8-12.7-9.4-15.7V2.3c0-1.3-1.1-2.3-2.3-2.3H18.8
	c-1.3,0-2.3,1.1-2.3,2.3v4.9c-5.6,3-9.4,8.9-9.4,15.7C6.7,35.2,5.6,42.2,0.4,46.9c-0.3,0.3-0.5,0.8-0.3,1.2c0.2,0.4,0.6,0.7,1,0.7
	h14.3c0.4,4.9,4.6,8.7,9.5,8.7c5,0,9.1-3.8,9.5-8.7h14.3c0,0,0,0,0,0c0.6,0,1.1-0.5,1.1-1.1C49.9,47.3,49.7,47,49.4,46.8L49.4,46.8z
	 M18.7,2.3c0-0.1,0.1-0.1,0.1-0.1h12.3c0.1,0,0.1,0.1,0.1,0.1v3.9c-2-0.7-4.1-1.1-6.3-1.1c-2.2,0-4.3,0.4-6.3,1.1V2.3L18.7,2.3z
	 M24.9,55.3c-3.8,0-6.9-2.8-7.3-6.5h14.6C31.8,52.4,28.7,55.3,24.9,55.3L24.9,55.3z M3.7,46.6C7.9,41.5,8.9,34.4,9.3,23
	c0-8.6,7-15.7,15.7-15.7c8.6,0,15.7,7,15.7,15.7c0.3,11.3,1.3,18.5,5.6,23.5H3.7L3.7,46.6z"/>
</svg>
