<?xml version="1.0" encoding="utf-8"?>
<!-- Generator: Adobe Illustrator 19.0.0, SVG Export Plug-In . SVG Version: 6.00 Build 0)  -->
<svg version="1.1" id="Layer_1" xmlns="http://www.w3.org/2000/svg" xmlns:xlink="http://www.w3.org/1999/xlink" x="0px" y="0px"
	 viewBox="0 0 61.1 58.5" style="enable-background:new 0 0 61.1 58.5;" xml:space="preserve">
<style type="text/css">
	.st0{fill:#ED1F24;}
</style>
<path d="M34.4,57.5h-7.7c-1.1,0-2-0.7-2.3-1.8L18.1,36c-1.9-0.4-3.7-1.4-5.1-2.8c-2.3-2.3-3.4-5.4-3-8.6c0.1-0.5,0.5-0.9,1-1
	c0.4,0,0.7-0.1,1.1-0.1c2.8,0,5.5,1.1,7.5,3.1c0.3,0.3,0.5,0.6,0.8,0.9c1.9-0.4,3.9-0.8,5.8-0.9l-0.8-3.7L13,21.8
	c-0.1,0-0.3-0.1-0.4-0.1l-7.9-4.2c-0.3-0.1-0.5-0.4-0.5-0.6L0.1,4.1c-0.2-0.6,0.1-1.2,0.7-1.4C1.4,2.5,2,2.8,2.2,3.4L5.5,14l3.2-7.9
	c0.2-0.6,0.9-0.8,1.4-0.6C10.7,5.7,11,6.4,10.8,7L7,16.3l5.5,2.9l1.7-6.9c0.1-0.6,0.7-1,1.3-0.8c0.6,0.1,1,0.7,0.8,1.3l-1.7,6.9
	l6.9,0.6l4.7-10.8l-1.4-2.4l-6.7,0.3c-0.5,0-0.9-0.3-1.1-0.6l-1.4-3.1c-0.3-0.6,0-1.2,0.6-1.5c0.6-0.3,1.2,0,1.5,0.6l1.1,2.5L23.6,5
	l-1.9-3.3c-0.3-0.5-0.1-1.2,0.4-1.5c0.5-0.3,1.2-0.1,1.5,0.4l4.8,8.4c0.2,0.3,0.2,0.7,0.1,1l-4.6,10.7l2.5,0.2c0.5,0,0.9,0.4,1,0.9
	l1,4.8c1.4,0,2.9,0,4.3,0.1l1.1-4.9c0.1-0.5,0.5-0.8,1-0.9l2.5-0.2L32.6,9.9c-0.1-0.3-0.1-0.7,0.1-1l4.8-8.4c0.3-0.5,1-0.7,1.5-0.4
	c0.5,0.3,0.7,1,0.4,1.5L37.5,5l4.8,0.2l1.1-2.5c0.3-0.6,0.9-0.8,1.5-0.6c0.6,0.3,0.8,0.9,0.6,1.5L44,6.8c-0.2,0.4-0.6,0.7-1,0.7
	l-6.7-0.3l-1.4,2.4l4.7,10.8l6.9-0.6l-1.7-6.9c-0.1-0.6,0.2-1.2,0.8-1.3c0.6-0.1,1.2,0.2,1.3,0.8l1.7,6.9l5.5-2.9L50.3,7
	c-0.2-0.6,0-1.2,0.6-1.4c0.6-0.2,1.2,0,1.4,0.6l3.2,7.9l3.4-10.6c0.2-0.6,0.8-0.9,1.4-0.7c0.6,0.2,0.9,0.8,0.7,1.4l-4.1,12.8
	c-0.1,0.3-0.3,0.5-0.5,0.6l-7.9,4.2c-0.1,0.1-0.3,0.1-0.4,0.1l-12.3,1.1l-0.8,3.9c1.9,0.2,3.7,0.6,5.6,1.1c0.3-0.4,0.7-0.9,1.1-1.3
	c2-2,4.7-3.1,7.5-3.1c0.4,0,0.7,0,1.1,0.1c0.5,0.1,0.9,0.5,1,1c0.3,3.2-0.8,6.3-3,8.6c-1.4,1.4-3.1,2.3-5,2.8l-6.4,19.7
	C36.5,56.8,35.5,57.5,34.4,57.5L34.4,57.5z M12.1,25.8c0,2.2,0.9,4.3,2.5,5.9c1.2,1.2,2.8,2,4.6,2.3c0.4,0.1,0.7,0.4,0.9,0.8
	l6.5,20.3c0,0.2,0.1,0.2,0.2,0.2h7.7c0.1,0,0.2-0.1,0.2-0.2l6.6-20.4c0.1-0.4,0.5-0.7,0.9-0.7c1.7-0.3,3.2-1.1,4.4-2.3
	c1.6-1.6,2.4-3.7,2.5-5.9c-2.2,0-4.3,0.9-5.9,2.5c-0.5,0.5-0.9,1-1.2,1.6c-0.3,0.4-0.8,0.6-1.3,0.5c-6.6-1.9-13.7-2.1-20.5-0.4
	c-0.4,0.1-0.9-0.1-1.2-0.4c-0.3-0.5-0.7-0.9-1-1.2C16.4,26.6,14.3,25.8,12.1,25.8L12.1,25.8z M26.1,33.8c1,0,1.9,0.8,1.9,1.9
	c0,1-0.8,1.9-1.9,1.9c-1,0-1.9-0.8-1.9-1.9C24.2,34.6,25,33.8,26.1,33.8L26.1,33.8z M35,33.8c1,0,1.9,0.8,1.9,1.9
	c0,1-0.8,1.9-1.9,1.9c-1,0-1.9-0.8-1.9-1.9C33.1,34.6,33.9,33.8,35,33.8L35,33.8z"/>
<circle id="XMLID_14_" class="st0" cx="30.6" cy="51.9" r="2.6"/>
</svg>
