<?xml version="1.0" encoding="utf-8"?>
<!-- Generator: Adobe Illustrator 19.0.0, SVG Export Plug-In . SVG Version: 6.00 Build 0)  -->
<svg version="1.1" id="Layer_1" xmlns="http://www.w3.org/2000/svg" xmlns:xlink="http://www.w3.org/1999/xlink" x="0px" y="0px"
	 viewBox="0 0 44.3 57.5" style="enable-background:new 0 0 44.3 57.5;" xml:space="preserve">
<path d="M38.3,57.5H6c-3.3,0-6-2.7-6-6V6c0-3.3,2.7-6,6-6h32.3c3.3,0,6,2.7,6,6v45.5C44.3,54.8,41.6,57.5,38.3,57.5L38.3,57.5z
	 M22.2,18.1c-1.8,0-3.2,1.5-3.2,3.3c0,1.8,1.4,3.3,3.2,3.3c1.8,0,3.2-1.5,3.2-3.3C25.3,19.6,23.9,18.1,22.2,18.1L22.2,18.1z
	 M11.6,16.3c-0.3,0-0.6,0.1-0.7,0.3c-0.2,0.3-0.4,0.8-0.4,1.4v6.7c0,0.6,0.1,1.1,0.4,1.4c0.4,0.5,1.1,0.4,2-0.1l4.3-2.5
	c-0.3-0.7-0.5-1.4-0.5-2.2c0-0.8,0.2-1.5,0.5-2.2l-4.3-2.5C12.4,16.5,12,16.3,11.6,16.3L11.6,16.3z M32.7,16.3
	c-0.4,0-0.8,0.1-1.2,0.4l-4.3,2.5c0.3,0.7,0.5,1.4,0.5,2.2c0,0.8-0.2,1.5-0.5,2.2l4.3,2.5c0.9,0.5,1.6,0.5,2,0.1
	c0.2-0.3,0.4-0.8,0.4-1.4v-6.7C33.8,17.6,33.7,16.3,32.7,16.3L32.7,16.3z M2.2,20.3h6.1v-2.3c0-1.1,0.3-2.1,0.9-2.8
	c1.1-1.3,3-1.5,4.8-0.5l4.5,2.6c0.7-0.7,1.6-1.1,2.6-1.4V2.2H6C3.9,2.2,2.2,3.9,2.2,6V20.3L2.2,20.3z M8.3,22.5H2.2v28.9
	c0,2.1,1.7,3.8,3.8,3.8h15V30.4c-3.1,6.6-8.4,11-11.1,12.5c-0.2,0.1-0.4,0.1-0.5,0.1c-0.4,0-0.8-0.2-1-0.6C8.1,42,8.3,41.3,8.8,41
	c3.3-1.9,9-7.2,11.4-14.4c-0.6-0.3-1.2-0.6-1.7-1.1L14,28.1c-0.8,0.5-1.6,0.7-2.3,0.7c-1,0-1.9-0.4-2.5-1.2
	c-0.6-0.7-0.9-1.7-0.9-2.8V22.5L8.3,22.5z M36,20.3h6.1V6c0-2.1-1.7-3.8-3.8-3.8h-15V16c1,0.2,1.9,0.7,2.6,1.4l4.5-2.6
	c0.8-0.5,1.6-0.7,2.3-0.7c1.7,0,3.3,1.2,3.3,4V20.3L36,20.3z M42.1,22.5H36v2.3c0,1.1-0.3,2.1-0.9,2.8c-0.6,0.8-1.5,1.2-2.5,1.2
	c-0.8,0-1.5-0.2-2.3-0.7l-4.5-2.6c-0.5,0.5-1.1,0.8-1.7,1.1c2.3,7.2,8,12.5,11.4,14.4c0.5,0.3,0.7,1,0.4,1.5c-0.2,0.4-0.6,0.6-1,0.6
	c-0.2,0-0.4,0-0.5-0.1c-2.7-1.5-8-5.9-11.1-12.5v24.9h15c2.1,0,3.8-1.7,3.8-3.8V22.5L42.1,22.5z"/>
</svg>
