<?xml version="1.0" encoding="utf-8"?>
<!-- Generator: Adobe Illustrator 19.0.0, SVG Export Plug-In . SVG Version: 6.00 Build 0)  -->
<svg version="1.1" id="Layer_1" xmlns="http://www.w3.org/2000/svg" xmlns:xlink="http://www.w3.org/1999/xlink" x="0px" y="0px"
	 viewBox="0 0 57.4 57.5" style="enable-background:new 0 0 57.4 57.5;" xml:space="preserve">
<path id="XMLID_2_" d="M47.9,15c5.3,0.4,9.5,4.3,9.5,9.1c0,5-4.7,9.1-10.5,9.1H10.5C4.7,33.2,0,29.1,0,24.1c0-3.8,2.7-7.1,6.7-8.5
	c0-0.4,0-0.8,0-1.2C6.6,6.5,13.1,0,21.1,0c5.1,0,9.8,2.7,12.4,7c1.3-0.5,2.6-0.8,4-0.8C42.6,6.2,47,10,47.9,15L47.9,15z M46.9,31
	c4.6,0,8.3-3.1,8.3-6.9c0-3.8-3.7-6.9-8.3-6.9c-0.6,0-1.1-0.4-1.1-1c-0.3-4.4-4-7.8-8.3-7.8c-1.4,0-2.7,0.3-3.9,1
	c-0.3,0.1-0.6,0.2-0.9,0.1c-0.3-0.1-0.5-0.3-0.7-0.6c-2.1-4.1-6.3-6.7-10.9-6.7c-6.7,0-12.2,5.5-12.2,12.2c0,0.6,0,1.2,0.1,1.8
	c0.1,0.6-0.3,1.1-0.8,1.2c-3.5,0.9-5.9,3.6-5.9,6.6c0,3.8,3.7,6.9,8.3,6.9H46.9L46.9,31z M14,37.6c0.6,0,1.1,0.5,1.1,1.1v0.9
	l0.8-0.5c0.5-0.3,1.2-0.1,1.5,0.4c0.3,0.5,0.1,1.2-0.4,1.5l-0.8,0.5L17,42c0.5,0.3,0.7,1,0.4,1.5c-0.3,0.5-1,0.7-1.5,0.4l-0.8-0.5
	v0.9c0,0.6-0.5,1.1-1.1,1.1c-0.6,0-1.1-0.5-1.1-1.1v-0.9l-0.8,0.5c-0.5,0.3-1.2,0.1-1.5-0.4c-0.3-0.5-0.1-1.2,0.4-1.5l0.8-0.5L11,41
	c-0.5-0.3-0.7-1-0.4-1.5c0.3-0.5,1-0.7,1.5-0.4l0.8,0.5v-0.9C12.9,38,13.4,37.6,14,37.6L14,37.6z M24.4,48c0.5,0.3,0.7,1,0.4,1.5
	c-0.3,0.5-1,0.7-1.5,0.4l-0.8-0.5v0.9c0,0.6-0.5,1.1-1.1,1.1c-0.6,0-1.1-0.5-1.1-1.1v-0.9l-0.8,0.5c-0.5,0.3-1.2,0.1-1.5-0.4
	c-0.3-0.5-0.1-1.2,0.4-1.5l0.8-0.5l-0.8-0.5c-0.5-0.3-0.7-1-0.4-1.5c0.3-0.5,1-0.7,1.5-0.4l0.8,0.5v-0.9c0-0.6,0.5-1.1,1.1-1.1
	c0.6,0,1.1,0.5,1.1,1.1v0.9l0.8-0.5c0.5-0.3,1.2-0.1,1.5,0.4c0.3,0.5,0.1,1.2-0.4,1.5l-0.8,0.5L24.4,48L24.4,48z M40,43.5
	c-0.3-0.5-0.1-1.2,0.4-1.5l0.8-0.5L40.4,41c-0.5-0.3-0.7-1-0.4-1.5c0.3-0.5,1-0.7,1.5-0.4l0.8,0.5v-0.9c0-0.6,0.5-1.1,1.1-1.1
	c0.6,0,1.1,0.5,1.1,1.1v0.9l0.8-0.5c0.5-0.3,1.2-0.1,1.5,0.4c0.3,0.5,0.1,1.2-0.4,1.5l-0.8,0.5l0.8,0.5c0.5,0.3,0.7,1,0.4,1.5
	c-0.3,0.5-1,0.7-1.5,0.4l-0.8-0.5v0.9c0,0.6-0.5,1.1-1.1,1.1c-0.6,0-1.1-0.5-1.1-1.1v-0.9l-0.8,0.5C41,44.2,40.3,44,40,43.5L40,43.5
	z M30.6,39.1c0.5-0.3,1.2-0.1,1.5,0.4c0.3,0.5,0.1,1.2-0.4,1.5l-0.8,0.5l0.8,0.5c0.5,0.3,0.7,1,0.4,1.5c-0.3,0.5-1,0.7-1.5,0.4
	l-0.8-0.5v0.9c0,0.6-0.5,1.1-1.1,1.1c-0.6,0-1.1-0.5-1.1-1.1v-0.9l-0.8,0.5c-0.5,0.3-1.2,0.1-1.5-0.4c-0.3-0.5-0.1-1.2,0.4-1.5
	l0.8-0.5L25.7,41c-0.5-0.3-0.7-1-0.4-1.5c0.3-0.5,1-0.7,1.5-0.4l0.8,0.5v-0.9c0-0.6,0.5-1.1,1.1-1.1c0.6,0,1.1,0.5,1.1,1.1v0.9
	L30.6,39.1L30.6,39.1z M39.5,45.5c0.3,0.5,0.1,1.2-0.4,1.5l-0.8,0.5l0.8,0.5c0.5,0.3,0.7,1,0.4,1.5c-0.3,0.5-1,0.7-1.5,0.4l-0.8-0.5
	v0.9c0,0.6-0.5,1.1-1.1,1.1c-0.6,0-1.1-0.5-1.1-1.1v-0.9l-0.8,0.5c-0.5,0.3-1.2,0.1-1.5-0.4C32.3,49,32.5,48.3,33,48l0.8-0.5
	L33,47.1c-0.5-0.3-0.7-1-0.4-1.5c0.3-0.5,1-0.7,1.5-0.4l0.8,0.5v-0.9c0-0.6,0.5-1.1,1.1-1.1c0.6,0,1.1,0.5,1.1,1.1v0.9l0.8-0.5
	C38.5,44.8,39.2,45,39.5,45.5L39.5,45.5z M17,54c0.5,0.3,0.7,1,0.4,1.5c-0.3,0.5-1,0.7-1.5,0.4l-0.8-0.5v0.9c0,0.6-0.5,1.1-1.1,1.1
	c-0.6,0-1.1-0.5-1.1-1.1v-0.9l-0.8,0.5c-0.5,0.3-1.2,0.1-1.5-0.4C10.3,55,10.4,54.3,11,54l0.8-0.5L11,53.1c-0.5-0.3-0.7-1-0.4-1.5
	c0.3-0.5,1-0.7,1.5-0.4l0.8,0.5v-0.9c0-0.6,0.5-1.1,1.1-1.1c0.6,0,1.1,0.5,1.1,1.1v0.9l0.8-0.5c0.5-0.3,1.2-0.1,1.5,0.4
	c0.3,0.5,0.1,1.2-0.4,1.5l-0.8,0.5L17,54L17,54z M32.1,51.6c0.3,0.5,0.1,1.2-0.4,1.5l-0.8,0.5l0.8,0.5c0.5,0.3,0.7,1,0.4,1.5
	c-0.3,0.5-1,0.7-1.5,0.4l-0.8-0.5v0.9c0,0.6-0.5,1.1-1.1,1.1c-0.6,0-1.1-0.5-1.1-1.1v-0.9l-0.8,0.5c-0.5,0.3-1.2,0.1-1.5-0.4
	C25,55,25.2,54.3,25.7,54l0.8-0.5l-0.8-0.5c-0.5-0.3-0.7-1-0.4-1.5c0.3-0.5,1-0.7,1.5-0.4l0.8,0.5v-0.9c0-0.6,0.5-1.1,1.1-1.1
	c0.6,0,1.1,0.5,1.1,1.1v0.9l0.8-0.5C31.1,50.9,31.8,51,32.1,51.6L32.1,51.6z M46.8,51.6c0.3,0.5,0.1,1.2-0.4,1.5l-0.8,0.5l0.8,0.5
	c0.5,0.3,0.7,1,0.4,1.5c-0.3,0.5-1,0.7-1.5,0.4l-0.8-0.5v0.9c0,0.6-0.5,1.1-1.1,1.1c-0.6,0-1.1-0.5-1.1-1.1v-0.9l-0.8,0.5
	C41,56.2,40.3,56,40,55.5c-0.3-0.5-0.1-1.2,0.4-1.5l0.8-0.5l-0.8-0.5c-0.5-0.3-0.7-1-0.4-1.5c0.3-0.5,1-0.7,1.5-0.4l0.8,0.5v-0.9
	c0-0.6,0.5-1.1,1.1-1.1c0.6,0,1.1,0.5,1.1,1.1v0.9l0.8-0.5C45.9,50.9,46.5,51,46.8,51.6L46.8,51.6z"/>
</svg>
