<?xml version="1.0" encoding="utf-8"?>
<!-- Generator: Adobe Illustrator 19.0.0, SVG Export Plug-In . SVG Version: 6.00 Build 0)  -->
<svg version="1.1" id="Layer_1" xmlns="http://www.w3.org/2000/svg" xmlns:xlink="http://www.w3.org/1999/xlink" x="0px" y="0px"
	 viewBox="0 0 57.5 57.5" style="enable-background:new 0 0 57.5 57.5;" xml:space="preserve">
<path d="M27.6,35.3c-0.1,0-0.2,0-0.4-0.1l-4.1,9.9c-0.2,0.4-0.6,0.7-1,0.7c-0.1,0-0.3,0-0.4-0.1c-0.6-0.2-0.8-0.9-0.6-1.4l4.1-10
	L25,34.1l-15,15c-0.2,0.2-0.5,0.3-0.8,0.3c-0.3,0-0.6-0.1-0.8-0.3c-0.4-0.4-0.4-1.1,0-1.6l15-15l-0.2-0.3l-10,4.2
	c-0.1,0.1-0.3,0.1-0.4,0.1c-0.4,0-0.8-0.3-1-0.7c-0.2-0.6,0-1.2,0.6-1.4l10.1-4.2l-0.1-0.3H1.1c-0.6,0-1.1-0.5-1.1-1.1
	c0-0.6,0.5-1.1,1.1-1.1h21.3l0.1-0.3l-10.1-4.2c-0.6-0.2-0.8-0.9-0.6-1.4c0.2-0.6,0.9-0.8,1.4-0.6l10,4.2l0.2-0.3l-15-15
	C8,9.5,8,8.9,8.4,8.4C8.8,8,9.5,8,10,8.4l15,15c0.1-0.1,0.2-0.1,0.3-0.2l-4.1-10c-0.2-0.6,0-1.2,0.6-1.4c0.6-0.2,1.2,0,1.4,0.6
	l4.1,9.9c0.1,0,0.2-0.1,0.4-0.1V1.1c0-0.6,0.5-1.1,1.1-1.1c0.6,0,1.1,0.5,1.1,1.1v21.1c0.1,0,0.2,0,0.4,0.1l4.1-9.9
	c0.2-0.6,0.9-0.8,1.4-0.6c0.6,0.2,0.8,0.9,0.6,1.4l-4.1,10c0.1,0.1,0.2,0.1,0.3,0.2l15-15c0.4-0.4,1.1-0.4,1.6,0
	c0.4,0.4,0.4,1.1,0,1.6l-15,15l0.2,0.3l10-4.2c0.6-0.2,1.2,0,1.4,0.6c0.2,0.6,0,1.2-0.6,1.4l-10.1,4.2l0.1,0.3h21.3
	c0.6,0,1.1,0.5,1.1,1.1c0,0.6-0.5,1.1-1.1,1.1H35.1l-0.1,0.3l10.1,4.2c0.6,0.2,0.8,0.9,0.6,1.4c-0.2,0.4-0.6,0.7-1,0.7
	c-0.1,0-0.3,0-0.4-0.1l-10-4.2l-0.2,0.3l15,15c0.4,0.4,0.4,1.1,0,1.6c-0.2,0.2-0.5,0.3-0.8,0.3c-0.3,0-0.6-0.1-0.8-0.3l-15-15
	c-0.1,0.1-0.2,0.1-0.3,0.2l4.1,10c0.2,0.6,0,1.2-0.6,1.4c-0.1,0.1-0.3,0.1-0.4,0.1c-0.4,0-0.8-0.3-1-0.7l-4.1-9.9
	c-0.1,0-0.2,0.1-0.4,0.1v21.1c0,0.6-0.5,1.1-1.1,1.1c-0.6,0-1.1-0.5-1.1-1.1V35.3L27.6,35.3z M28.7,24.3c-2.3,0-4.3,2-4.3,4.4
	c0,2.4,1.9,4.4,4.3,4.4c2.3,0,4.3-2,4.3-4.4C33,26.3,31.1,24.3,28.7,24.3L28.7,24.3z"/>
</svg>
