<?xml version="1.0" encoding="utf-8"?>
<!-- Generator: Adobe Illustrator 19.0.0, SVG Export Plug-In . SVG Version: 6.00 Build 0)  -->
<svg version="1.1" id="Layer_1" xmlns="http://www.w3.org/2000/svg" xmlns:xlink="http://www.w3.org/1999/xlink" x="0px" y="0px"
	 viewBox="0 0 45 65.8" style="enable-background:new 0 0 45 65.8;" xml:space="preserve">
<path d="M45,39.9c0,1.1-0.3,2.1-1,2.9c0.6,0.8,1,1.8,1,2.9c0,1.6-0.9,3.1-2.2,4c0.2,0.5,0.3,1,0.3,1.5c0,2.3-1.6,4.2-3.8,4.6
	c-0.5,2.9-3,5-6.1,5c-0.4,0-0.9,0-1.3-0.1c-2,3.1-5.4,5-9.1,5s-7.2-1.9-9.1-5c-0.4,0.1-0.9,0.1-1.3,0.1c-3,0-5.5-2.1-6.1-5
	c-2.2-0.4-3.8-2.4-3.8-4.6c0-0.4,0.1-0.9,0.2-1.3C1.1,49.2,0,47.6,0,45.7c0-1.1,0.3-2.1,1-2.9C0.3,42,0,41,0,39.9
	c0-1.3,0.6-2.6,1.5-3.4c-0.3-0.6-0.4-1.2-0.4-1.9c0-2.5,1.9-4.5,4.4-4.7l11.7-19.4c-0.8-1.1-1.3-2.4-1.3-3.9c0-3.6,3-6.6,6.6-6.6
	c3.6,0,6.6,3,6.6,6.6c0,1.4-0.5,2.8-1.3,3.9l11.7,19.4c2.4,0.2,4.4,2.2,4.4,4.7c0,0.7-0.1,1.3-0.4,1.9C44.5,37.4,45,38.6,45,39.9
	L45,39.9z M35.8,47.2c-0.2-0.5-0.3-1-0.3-1.5c0-1.1,0.3-2.1,1-2.9c-0.6-0.8-1-1.8-1-2.9c0-0.7,0.1-1.3,0.4-1.9
	c-0.9-0.9-1.5-2.1-1.5-3.4c0-0.4,0.1-0.9,0.2-1.3H10.4c0.1,0.4,0.2,0.8,0.2,1.3c0,1.3-0.6,2.6-1.5,3.4c0.3,0.6,0.4,1.2,0.4,1.9
	c0,1.1-0.3,2.1-1,2.9c0.6,0.8,1,1.8,1,2.9c0,0.4-0.1,0.9-0.2,1.3c0.8,0.4,1.4,1,1.9,1.7c1-0.2,2-0.1,2.9,0.1c2-2.8,5.3-4.5,8.7-4.5
	c3.5,0,6.7,1.7,8.7,4.5c0.9-0.3,1.9-0.3,2.9-0.1C34.8,48.1,35.2,47.6,35.8,47.2L35.8,47.2z M22.5,13.2c-1.4,0-2.6-0.4-3.7-1.1
	l-11,18.3c0.4,0.2,0.8,0.5,1.2,0.8h27c0.4-0.3,0.8-0.6,1.2-0.8l-11-18.3C25.2,12.8,23.9,13.2,22.5,13.2L22.5,13.2z M22.5,2.2
	c-2.4,0-4.4,2-4.4,4.4c0,2.4,2,4.4,4.4,4.4c2.4,0,4.4-2,4.4-4.4C26.9,4.2,24.9,2.2,22.5,2.2L22.5,2.2z M41.8,43.7
	c-0.3-0.2-0.4-0.5-0.4-0.9c0-0.3,0.2-0.7,0.4-0.9c0.6-0.5,1-1.2,1-2c0-0.9-0.5-1.7-1.3-2.2c-0.3-0.2-0.5-0.4-0.5-0.7
	c-0.1-0.3,0-0.6,0.2-0.9c0.3-0.4,0.5-1,0.5-1.5c0-1.4-1.1-2.5-2.5-2.5c-1.4,0-2.5,1.1-2.5,2.5c0,0.9,0.5,1.7,1.3,2.2
	c0.3,0.2,0.5,0.4,0.5,0.7c0.1,0.3,0,0.6-0.2,0.9c-0.3,0.4-0.5,1-0.5,1.5c0,0.8,0.4,1.5,1,2c0.3,0.2,0.4,0.5,0.4,0.9
	c0,0.3-0.2,0.7-0.4,0.9c-0.6,0.5-1,1.2-1,2c0,0.5,0.2,1,0.4,1.4c0.2,0.3,0.3,0.7,0.1,1c-0.1,0.3-0.4,0.6-0.7,0.7
	c-0.8,0.2-1.4,0.8-1.6,1.5c-0.2,0.6-0.8,0.9-1.4,0.6c-1-0.4-2.1-0.3-3,0.1c-0.5,0.2-1.1,0.1-1.4-0.4c-1.5-2.6-4.3-4.2-7.3-4.2
	c-3,0-5.8,1.6-7.3,4.2c-0.3,0.5-0.9,0.7-1.4,0.4c-1-0.4-2.1-0.5-3-0.1c-0.6,0.2-1.2-0.1-1.4-0.6c-0.3-0.8-1.1-1.5-2-1.6
	c-0.4-0.1-0.7-0.3-0.8-0.6S6.7,47.4,6.9,47c0.3-0.4,0.4-0.9,0.4-1.4c0-0.8-0.4-1.5-1-2c-0.3-0.2-0.4-0.5-0.4-0.9
	c0-0.3,0.2-0.7,0.4-0.9c0.6-0.5,1-1.2,1-2c0-0.5-0.2-1.1-0.5-1.5c-0.2-0.3-0.3-0.6-0.2-0.9c0.1-0.3,0.3-0.6,0.5-0.7
	c0.8-0.4,1.3-1.3,1.3-2.2c0-1.4-1.1-2.5-2.5-2.5c-1.4,0-2.5,1.1-2.5,2.5c0,0.5,0.2,1.1,0.5,1.5C4,36.4,4.1,36.7,4,37
	c-0.1,0.3-0.3,0.6-0.5,0.7c-0.8,0.5-1.3,1.3-1.3,2.2c0,0.8,0.4,1.5,1,2c0.3,0.2,0.4,0.5,0.4,0.9c0,0.3-0.2,0.7-0.4,0.9
	c-0.6,0.5-1,1.2-1,2c0,1.2,0.9,2.3,2.1,2.5c0.4,0.1,0.7,0.3,0.8,0.6c0.2,0.3,0.1,0.7-0.1,1.1c-0.3,0.4-0.4,0.9-0.4,1.4
	c0,1.4,1.1,2.5,2.5,2.5c0.6,0,1.2,0.5,1.2,1.1c0.1,2.2,1.8,3.8,4,3.8c0.5,0,1-0.1,1.5-0.3c0.1-0.1,0.3-0.1,0.4-0.1
	c0.4,0,0.8,0.2,1,0.6c1.5,2.9,4.4,4.7,7.6,4.7c3.2,0,6.1-1.8,7.6-4.7c0.3-0.5,0.9-0.7,1.4-0.5c0.5,0.2,1,0.3,1.5,0.3
	c2.2,0,3.9-1.7,4-3.8c0-0.6,0.5-1.1,1.1-1.1c1.5,0,2.6-1.1,2.6-2.5c0-0.5-0.2-1-0.4-1.4c-0.2-0.3-0.3-0.7-0.1-1
	c0.1-0.3,0.4-0.6,0.7-0.7c1.1-0.3,1.8-1.3,1.8-2.4C42.8,44.9,42.5,44.2,41.8,43.7L41.8,43.7z M22.8,58c-2.8,0-5.1-2.3-5.1-5.1h10.2
	C27.9,55.7,25.6,58,22.8,58L22.8,58z M16.8,36.9c1,0,1.8,0.8,1.8,1.8c0,1-0.8,1.8-1.8,1.8c-1,0-1.8-0.8-1.8-1.8
	C15,37.7,15.8,36.9,16.8,36.9L16.8,36.9z M28.3,36.9c1,0,1.8,0.8,1.8,1.8c0,1-0.8,1.8-1.8,1.8c-1,0-1.8-0.8-1.8-1.8
	C26.5,37.7,27.3,36.9,28.3,36.9L28.3,36.9z"/>
</svg>
