<?xml version="1.0" encoding="utf-8"?>
<!-- Generator: Adobe Illustrator 19.0.0, SVG Export Plug-In . SVG Version: 6.00 Build 0)  -->
<svg version="1.1" id="Layer_1" xmlns="http://www.w3.org/2000/svg" xmlns:xlink="http://www.w3.org/1999/xlink" x="0px" y="0px"
	 viewBox="0 0 71.8 65.4" style="enable-background:new 0 0 71.8 65.4;" xml:space="preserve">
<path id="XMLID_2_" d="M35.9,63.2c9,0,16.2-7.3,16.2-16.2c0-7-4.4-12.9-10.6-15.2c-1.7,0.9-3.6,1.4-5.7,1.4c-2,0-4-0.5-5.7-1.4
	c-6.2,2.3-10.6,8.3-10.6,15.2C19.6,55.9,26.9,63.2,35.9,63.2L35.9,63.2z M25.5,20.5c0,5.7,4.7,10.4,10.4,10.4
	c5.7,0,10.4-4.7,10.4-10.4c0-3.1-1.4-5.9-3.5-7.8H29.1C26.9,14.6,25.5,17.4,25.5,20.5L25.5,20.5z M28.9,2.2v8.3h14V2.2H28.9
	L28.9,2.2z M70.7,26.4c0.6,0,1.1,0.5,1.1,1.1c0,0.6-0.5,1.1-1.1,1.1H62l-9.8,9.8c1.4,2.6,2.1,5.5,2.1,8.6c0,10.2-8.3,18.5-18.5,18.5
	c-10.2,0-18.5-8.3-18.5-18.5c0-3.1,0.8-6,2.1-8.6l-9.8-9.8H1.1c-0.6,0-1.1-0.5-1.1-1.1c0-0.6,0.5-1.1,1.1-1.1h6.5L4,22.7
	c-0.4-0.4-0.4-1.1,0-1.6c0.4-0.4,1.1-0.4,1.6,0l3.6,3.6v-6.5c0-0.6,0.5-1.1,1.1-1.1c0.6,0,1.1,0.5,1.1,1.1V27l9.4,9.4
	c1.8-2.6,4.3-4.8,7.2-6.1c-2.8-2.3-4.7-5.8-4.7-9.8c0-2.9,1-5.6,2.7-7.8h-5.2c-0.6,0-1.1-0.5-1.1-1.1c0-0.6,0.5-1.1,1.1-1.1h5.8V1.1
	c0-0.6,0.5-1.1,1.1-1.1H44c0.6,0,1.1,0.5,1.1,1.1v9.4H51c0.6,0,1.1,0.5,1.1,1.1c0,0.6-0.5,1.1-1.1,1.1h-5.2c1.7,2.1,2.7,4.8,2.7,7.8
	c0,3.9-1.8,7.5-4.7,9.8c2.9,1.4,5.4,3.5,7.2,6.1l9.4-9.4v-8.7c0-0.6,0.5-1.1,1.1-1.1c0.6,0,1.1,0.5,1.1,1.1v6.5l3.6-3.6
	c0.4-0.4,1.1-0.4,1.6,0c0.4,0.4,0.4,1.1,0,1.6l-3.6,3.6H70.7L70.7,26.4z M35.9,36.4c1.2,0,2.1,1,2.1,2.1c0,1.2-0.9,2.1-2.1,2.1
	c-1.2,0-2.1-1-2.1-2.1C33.8,37.4,34.7,36.4,35.9,36.4L35.9,36.4z M35.9,44.8c1.2,0,2.1,0.9,2.1,2.1c0,1.2-0.9,2.1-2.1,2.1
	c-1.2,0-2.1-0.9-2.1-2.1C33.8,45.7,34.7,44.8,35.9,44.8L35.9,44.8z M35.9,53.1c1.2,0,2.1,0.9,2.1,2.1c0,1.2-0.9,2.1-2.1,2.1
	c-1.2,0-2.1-0.9-2.1-2.1C33.8,54.1,34.7,53.1,35.9,53.1L35.9,53.1z M35.9,27.9c-2.8,0-5.2-1.5-6.5-4c-0.3-0.5-0.1-1.2,0.5-1.5
	c0.5-0.3,1.2-0.1,1.5,0.5c0.9,1.7,2.6,2.8,4.5,2.8c1.9,0,3.7-1.1,4.5-2.8c0.3-0.5,0.9-0.8,1.5-0.5c0.5,0.3,0.8,0.9,0.5,1.5
	C41.1,26.3,38.7,27.9,35.9,27.9L35.9,27.9z M32.5,18.8c-0.9,0-1.7-0.8-1.7-1.7c0-0.9,0.8-1.7,1.7-1.7c0.9,0,1.7,0.8,1.7,1.7
	C34.2,18,33.5,18.8,32.5,18.8L32.5,18.8z M39.2,18.8c-0.9,0-1.7-0.8-1.7-1.7c0-0.9,0.8-1.7,1.7-1.7c0.9,0,1.7,0.8,1.7,1.7
	C40.9,18,40.2,18.8,39.2,18.8L39.2,18.8z"/>
</svg>
