<?xml version="1.0" encoding="utf-8"?>
<!-- Generator: Adobe Illustrator 19.0.0, SVG Export Plug-In . SVG Version: 6.00 Build 0)  -->
<svg version="1.1" id="Layer_1" xmlns="http://www.w3.org/2000/svg" xmlns:xlink="http://www.w3.org/1999/xlink" x="0px" y="0px"
	 viewBox="0 0 68.5 47.7" style="enable-background:new 0 0 68.5 47.7;" xml:space="preserve">
<path id="XMLID_2_" d="M16.3,25.5h-9V31h9V25.5L16.3,25.5z M16.3,17.7h-9v5.5h9V17.7L16.3,17.7z M16.3,10h-9v5.5h9V10L16.3,10z
	 M16.3,7.8V2.2h-9v5.5H16.3L16.3,7.8z M27.5,7.8V2.2h-9v5.5H27.5L27.5,7.8z M38.8,7.8V2.2h-9v5.5H38.8L38.8,7.8z M61.3,25.5h-9V31h9
	V25.5L61.3,25.5z M61.3,17.7h-9v5.5h9V17.7L61.3,17.7z M50,7.8V2.2h-9v5.5H50L50,7.8z M61.3,10h-9v5.5h9V10L61.3,10z M52.2,7.8h9
	V2.2h-9V7.8L52.2,7.8z M52.2,38.8h9v-5.5h-9V38.8L52.2,38.8z M7.3,38.8h9v-5.5h-9V38.8L7.3,38.8z M67.4,47.7H1.1
	c-0.6,0-1.1-0.5-1.1-1.1v-6.7c0-0.6,0.5-1.1,1.1-1.1h4V1.1C5.1,0.5,5.6,0,6.2,0h56.2c0.6,0,1.1,0.5,1.1,1.1v37.7h4
	c0.6,0,1.1,0.5,1.1,1.1v6.7C68.5,47.2,68,47.7,67.4,47.7L67.4,47.7z M28.5,38.8c-1.8-1.6-3-4-3-6.7c0-7.9,7.7-14.6,8-14.9
	c0.4-0.4,1-0.4,1.4,0c0.3,0.3,8.2,7,8.2,14.9c0,2.7-1.2,5-3,6.7H50V10H18.5v28.8H28.5L28.5,38.8z M2.2,41v4.5h64.1V41H2.2L2.2,41z
	 M34.2,38.8c2.2,0,3.9-1.7,3.9-3.9c0-3.3-2.6-6.3-3.9-7.6c-1.3,1.3-3.9,4.4-3.9,7.6C30.4,37,32.1,38.7,34.2,38.8L34.2,38.8z
	 M34.2,19.5c-1.8,1.8-6.6,7-6.6,12.6c0,0.9,0.2,1.7,0.5,2.5c0.1-5.2,5.1-9.6,5.4-9.8c0.4-0.4,1-0.4,1.4,0c0.2,0.2,5.3,4.6,5.4,9.9
	c0.3-0.8,0.5-1.7,0.5-2.6C40.9,26.5,36.1,21.3,34.2,19.5L34.2,19.5z"/>
</svg>
