<?xml version="1.0" encoding="utf-8"?>
<!-- Generator: Adobe Illustrator 19.0.0, SVG Export Plug-In . SVG Version: 6.00 Build 0)  -->
<svg version="1.1" id="Layer_1" xmlns="http://www.w3.org/2000/svg" xmlns:xlink="http://www.w3.org/1999/xlink" x="0px" y="0px"
	 viewBox="0 0 43 57.7" style="enable-background:new 0 0 43 57.7;" xml:space="preserve">
<path d="M29.4,16.2v-4.7c0-1.3-0.9-2.5-2.1-2.8V5.8c0-3.2-2.6-5.8-5.8-5.8c-3.2,0-5.8,2.6-5.8,5.8v2.9c-1.2,0.4-2.1,1.5-2.1,2.8v4.7
	C5.7,19.4,0,27.2,0,36.2c0,11.9,9.6,21.5,21.5,21.5c11.9,0,21.5-9.6,21.5-21.5C43,27.2,37.3,19.4,29.4,16.2L29.4,16.2z M21.5,2.2
	c2,0,3.5,1.6,3.5,3.5v2.8h-7.1V5.8C17.9,3.8,19.5,2.2,21.5,2.2L21.5,2.2z M15.8,11.5c0-0.4,0.3-0.8,0.8-0.8h9.8
	c0.4,0,0.8,0.3,0.8,0.8v4c-1.8-0.5-3.7-0.8-5.7-0.8c-2,0-3.9,0.3-5.7,0.8V11.5L15.8,11.5z M21.5,17c10.6,0,19.3,8.6,19.3,19.3
	c0,0.2,0,0.5,0,0.7l-3.5-5.2c-0.2-0.3-0.6-0.5-0.9-0.5c-0.4,0-0.7,0.2-0.9,0.5l-4,6.1l-4-6.1c-0.2-0.3-0.6-0.5-0.9-0.5
	s-0.7,0.2-0.9,0.5l-4,6.1l-4-6.1c-0.2-0.3-0.6-0.5-0.9-0.5c-0.4,0-0.7,0.2-0.9,0.5l-4,6.1l-4-6.1c-0.2-0.3-0.6-0.5-0.9-0.5
	c-0.4,0-0.7,0.2-0.9,0.5L2.2,37c0-0.2,0-0.5,0-0.7C2.2,25.6,10.9,17,21.5,17L21.5,17z M21.5,55.5c-9.2,0-17-6.5-18.8-15.2l4-6l4,6.1
	c0.2,0.3,0.6,0.5,0.9,0.5c0.4,0,0.7-0.2,0.9-0.5l4-6.1l4,6.1c0.2,0.3,0.6,0.5,0.9,0.5c0.4,0,0.7-0.2,0.9-0.5l4-6.1l4,6.1
	c0.2,0.3,0.6,0.5,0.9,0.5s0.7-0.2,0.9-0.5l4-6.1l4,6C38.4,49,30.7,55.5,21.5,55.5L21.5,55.5z"/>
</svg>
