<?xml version="1.0" encoding="utf-8"?>
<!-- Generator: Adobe Illustrator 19.0.0, SVG Export Plug-In . SVG Version: 6.00 Build 0)  -->
<svg version="1.1" id="Layer_1" xmlns="http://www.w3.org/2000/svg" xmlns:xlink="http://www.w3.org/1999/xlink" x="0px" y="0px"
	 viewBox="0 0 57.5 57.5" style="enable-background:new 0 0 57.5 57.5;" xml:space="preserve">
<path d="M28.7,57.5c-0.2,0-0.4-0.1-0.6-0.2c-3.9-2.5-6.3-6.5-6.7-11c-2.6,2.2-5.9,3.4-9.3,3.4c-1.1,0-2.1-0.1-3.2-0.4
	c-0.4-0.1-0.7-0.4-0.8-0.8c-1-4.5,0.1-9.1,3.1-12.5c-4.5-0.4-8.6-2.8-11-6.7c-0.2-0.4-0.2-0.8,0-1.2c2.5-3.9,6.5-6.3,11-6.7
	C8.3,18,7.1,13.4,8.1,9C8.2,8.5,8.5,8.2,9,8.1c1-0.2,2.1-0.4,3.2-0.4c3.5,0,6.7,1.2,9.3,3.4c0.4-4.5,2.8-8.6,6.7-11
	c0.4-0.2,0.8-0.2,1.2,0c3.9,2.5,6.3,6.5,6.7,11c2.6-2.2,5.9-3.4,9.3-3.4c1.1,0,2.1,0.1,3.2,0.4c0.4,0.1,0.7,0.4,0.8,0.8
	c1,4.5-0.1,9.1-3.1,12.5c4.5,0.4,8.6,2.8,11,6.7c0.2,0.4,0.2,0.8,0,1.2c-2.5,3.9-6.5,6.3-11,6.7c2.9,3.4,4.1,8,3.1,12.5
	c-0.1,0.4-0.4,0.7-0.8,0.8c-1,0.2-2.1,0.4-3.2,0.4c-3.5,0-6.7-1.2-9.3-3.4c-0.4,4.5-2.8,8.6-6.7,11C29.2,57.4,28.9,57.5,28.7,57.5
	L28.7,57.5z M22.6,42.4c0.1,0,0.3,0,0.4,0.1c0.5,0.2,0.7,0.7,0.7,1.1c-0.1,0.5-0.1,0.9-0.1,1.4c0,4,1.9,7.7,5.1,10
	c3.2-2.3,5.1-6,5.1-10c0-0.5,0-1-0.1-1.4c-0.1-0.5,0.2-1,0.7-1.1c0.5-0.2,1-0.1,1.3,0.3c0.3,0.4,0.6,0.7,0.9,1.1
	c2.3,2.3,5.4,3.6,8.7,3.6c0.7,0,1.3-0.1,2-0.2c0.6-3.9-0.6-7.8-3.4-10.7c-0.3-0.3-0.7-0.7-1.1-0.9c-0.4-0.3-0.5-0.8-0.3-1.3
	c0.2-0.5,0.7-0.7,1.1-0.7c0.5,0.1,1,0.1,1.4,0.1c4,0,7.7-1.9,10-5.1c-2.3-3.2-6-5.1-10-5.1c-0.5,0-0.9,0-1.4,0.1
	c-0.5,0.1-1-0.2-1.1-0.7c-0.2-0.5-0.1-1,0.3-1.3c0.4-0.3,0.7-0.6,1.1-0.9C46.7,18,48,14,47.3,10.1C46.7,10,46,10,45.4,10
	c-3.3,0-6.4,1.3-8.7,3.6c-0.3,0.3-0.7,0.7-0.9,1.1c-0.3,0.4-0.8,0.5-1.3,0.3c-0.5-0.2-0.7-0.7-0.7-1.1c0.1-0.5,0.1-0.9,0.1-1.4
	c0-4-1.9-7.7-5.1-10c-3.2,2.3-5.1,6-5.1,10c0,0.5,0,1,0.1,1.4c0.1,0.5-0.2,1-0.7,1.1c-0.5,0.2-1,0.1-1.3-0.3
	c-0.3-0.4-0.6-0.7-0.9-1.1c-2.3-2.3-5.4-3.6-8.7-3.6c-0.7,0-1.3,0.1-2,0.2C9.5,14,10.8,18,13.6,20.8c0.3,0.3,0.7,0.7,1.1,0.9
	c0.4,0.3,0.5,0.8,0.3,1.3c-0.2,0.5-0.7,0.7-1.1,0.7c-0.5-0.1-1-0.1-1.4-0.1c-4,0-7.7,1.9-10,5.1c2.3,3.2,6,5.1,10,5.1
	c0.5,0,1,0,1.4-0.1c0.5-0.1,1,0.2,1.1,0.7c0.2,0.5,0.1,1-0.3,1.3c-0.4,0.3-0.7,0.6-1.1,1c-2.8,2.8-4.1,6.8-3.4,10.7
	c0.7,0.1,1.3,0.2,2,0.2c3.3,0,6.4-1.3,8.7-3.6c0.3-0.3,0.7-0.7,0.9-1.1C22,42.6,22.3,42.4,22.6,42.4L22.6,42.4z M37.6,26.6
	c1.2,0,2.1,0.9,2.1,2.1c0,1.2-0.9,2.1-2.1,2.1c-0.8,0-1.4-0.4-1.8-1h-4.4l3.1,3.1c0.7-0.2,1.5,0,2,0.6c0.8,0.8,0.8,2.2,0,3
	c-0.8,0.8-2.2,0.8-3,0c-0.5-0.5-0.7-1.3-0.6-2l-3.1-3.1v4.4c0.6,0.4,1,1,1,1.8c0,1.2-1,2.1-2.1,2.1c-1.2,0-2.1-0.9-2.1-2.1
	c0-0.8,0.4-1.4,1-1.8v-4.4l-3.1,3.1c0.2,0.7,0,1.5-0.6,2c-0.8,0.8-2.2,0.8-3,0c-0.8-0.8-0.8-2.2,0-3c0.5-0.5,1.3-0.7,2-0.6l3.1-3.1
	l-4.4,0c-0.4,0.6-1,1-1.8,1c-1.2,0-2.1-1-2.1-2.1c0-1.2,1-2.1,2.1-2.1c0.8,0,1.4,0.4,1.8,1l4.4,0L23,24.5c-0.7,0.2-1.5,0-2-0.6
	c-0.8-0.8-0.8-2.2,0-3c0.8-0.8,2.2-0.8,3,0c0.5,0.5,0.7,1.3,0.6,2l3.1,3.1v-4.4c-0.6-0.4-1-1-1-1.8c0-1.2,1-2.1,2.1-2.1
	c1.2,0,2.1,1,2.1,2.1c0,0.8-0.4,1.4-1,1.8v4.4L33,23c-0.2-0.7,0-1.5,0.6-2c0.8-0.8,2.2-0.8,3,0c0.8,0.8,0.8,2.2,0,3
	c-0.5,0.5-1.3,0.7-2,0.6l-3.1,3.1h4.4C36.2,27,36.9,26.6,37.6,26.6L37.6,26.6z"/>
</svg>
