<?xml version="1.0" encoding="utf-8"?>
<!-- Generator: Adobe Illustrator 19.0.0, SVG Export Plug-In . SVG Version: 6.00 Build 0)  -->
<svg version="1.1" id="Layer_1" xmlns="http://www.w3.org/2000/svg" xmlns:xlink="http://www.w3.org/1999/xlink" x="0px" y="0px"
	 viewBox="0 0 45.1 57.5" style="enable-background:new 0 0 45.1 57.5;" xml:space="preserve">
<path d="M42.6,28.7L26,12l1.1-1.1c1.1-1.1,1.1-2.8,0-3.9l-6.2-6.2c-0.5-0.5-1.2-0.8-2-0.8c-0.7,0-1.4,0.3-1.9,0.8L0.8,17
	c-1.1,1.1-1.1,2.8,0,3.9L7,27.1c0.5,0.5,1.2,0.8,1.9,0.8c0.7,0,1.4-0.3,1.9-0.8L12,26l10.5,10.5l-6.2,6.2c-1.6,1.6-2.5,3.8-2.5,6.1
	c0,2.3,0.9,4.5,2.5,6.1c1.6,1.6,3.8,2.5,6.1,2.5s4.5-0.9,6.2-2.6l14-14c1.6-1.6,2.5-3.8,2.5-6.1C45.1,32.5,44.2,30.3,42.6,28.7
	L42.6,28.7z M9.4,25.5c-0.1,0.1-0.3,0.2-0.4,0.2c-0.1,0-0.2,0-0.4-0.2l-6.2-6.2c-0.2-0.2-0.2-0.6,0-0.8L18.5,2.4
	c0.1-0.1,0.3-0.2,0.4-0.2c0.1,0,0.2,0,0.4,0.2l6.2,6.2c0.2,0.2,0.2,0.6,0,0.8L9.4,25.5L9.4,25.5z M41,39.4L27.2,53.1L27,53.4
	c-1.2,1.2-2.8,1.9-4.6,1.9c-1.7,0-3.3-0.7-4.6-1.9c-1.2-1.2-1.9-2.8-1.9-4.6c0-1.7,0.7-3.4,1.9-4.6l7-7c0.4-0.4,0.4-1.1,0-1.6
	L13.6,24.4l10.8-10.8L41,30.2c1.2,1.2,1.9,2.8,1.9,4.6C42.9,36.5,42.2,38.1,41,39.4L41,39.4z"/>
</svg>
