<?xml version="1.0" encoding="utf-8"?>
<!-- Generator: Adobe Illustrator 19.0.0, SVG Export Plug-In . SVG Version: 6.00 Build 0)  -->
<svg version="1.1" id="Layer_1" xmlns="http://www.w3.org/2000/svg" xmlns:xlink="http://www.w3.org/1999/xlink" x="0px" y="0px"
	 viewBox="0 0 61.4 67.7" style="enable-background:new 0 0 61.4 67.7;" xml:space="preserve">
<path d="M38.4,65.5h20.8V42.8l-18.6-5.5c-0.5-0.1-0.8-0.6-0.8-1.1V20.5l-9.1-7.7l-9.1,7.7v15.7c0,0.5-0.3,0.9-0.8,1.1L2.2,42.8v22.7
	H23V52.9c0-4.2,3.4-7.7,7.7-7.7c4.2,0,7.7,3.4,7.7,7.7V65.5L38.4,65.5z M34.3,6.1h-2.5v4.7l9.8,8.3c0.2,0.2,0.4,0.5,0.4,0.8v15.4
	l18.6,5.5c0.5,0.1,0.8,0.6,0.8,1.1v24.6c0,0.6-0.5,1.1-1.1,1.1h-23c-0.6,0-1.1-0.5-1.1-1.1V52.9c0-3-2.4-5.5-5.4-5.5
	c-3,0-5.4,2.4-5.4,5.4v13.7c0,0.6-0.5,1.1-1.1,1.1h-23c-0.6,0-1.1-0.5-1.1-1.1V42c0-0.5,0.3-0.9,0.8-1.1l18.6-5.5V20
	c0-0.3,0.1-0.6,0.4-0.8l9.8-8.3V6.1h-2.5C26.5,6.1,26,5.6,26,5c0-0.6,0.5-1.1,1.1-1.1h2.5V1.1c0-0.6,0.5-1.1,1.1-1.1
	c0.6,0,1.1,0.5,1.1,1.1v2.8h2.5c0.6,0,1.1,0.5,1.1,1.1C35.4,5.6,34.9,6.1,34.3,6.1L34.3,6.1z M30.7,31.1c-2.8,0-5.1-2.3-5.1-5.1
	c0-2.8,2.3-5.1,5.1-5.1c2.8,0,5.1,2.3,5.1,5.1C35.8,28.8,33.5,31.1,30.7,31.1L30.7,31.1z M30.7,23c-1.6,0-2.9,1.3-2.9,2.9
	c0,1.6,1.3,2.9,2.9,2.9c1.6,0,2.9-1.3,2.9-2.9C33.6,24.3,32.3,23,30.7,23L30.7,23z M15.8,58.1H9.7c-0.6,0-1.1-0.5-1.1-1.1v-6.2
	c0-2.3,1.9-4.2,4.2-4.2c2.3,0,4.2,1.9,4.2,4.2V57C16.9,57.6,16.4,58.1,15.8,58.1L15.8,58.1z M10.8,55.9h3.9v-5.1c0-1.1-0.9-2-2-2
	c-1.1,0-2,0.9-2,2V55.9L10.8,55.9z M51.7,58.1h-6.1c-0.6,0-1.1-0.5-1.1-1.1v-6.2c0-2.3,1.9-4.2,4.2-4.2c2.3,0,4.2,1.9,4.2,4.2V57
	C52.8,57.6,52.3,58.1,51.7,58.1L51.7,58.1z M46.7,55.9h3.9v-5.1c0-1.1-0.9-2-2-2c-1.1,0-2,0.9-2,2V55.9L46.7,55.9z"/>
</svg>
