<?xml version="1.0" encoding="utf-8"?>
<!-- Generator: Adobe Illustrator 19.0.0, SVG Export Plug-In . SVG Version: 6.00 Build 0)  -->
<svg version="1.1" id="Layer_1" xmlns="http://www.w3.org/2000/svg" xmlns:xlink="http://www.w3.org/1999/xlink" x="0px" y="0px"
	 viewBox="0 0 63.2 51.3" style="enable-background:new 0 0 63.2 51.3;" xml:space="preserve">
<path d="M29,17.6c0.8,1.4,2.7,1.9,4.1,1.1c1.4-0.8,1.9-2.7,1.1-4.1c-0.8-1.4-2.7-1.9-4.1-1.1C28.6,14.3,28.1,16.2,29,17.6L29,17.6z
	 M36.1,13.5c1.4,2.5,0.6,5.7-1.9,7.1c-2.5,1.4-5.7,0.6-7.1-1.9c-1.4-2.5-0.6-5.7,1.9-7.1C31.5,10.1,34.7,11,36.1,13.5L36.1,13.5z
	 M23.5,17.4c-0.1,0-0.2,0-0.2,0c-0.5-0.1-1-0.2-1.6-0.2c-3.7,0-6.4,2.7-6.4,2.7c-0.2,0.2-0.5,0.3-0.8,0.3c-0.4,0-0.7-0.2-0.9-0.5
	c-3.4-4.9-8.4-5.1-9-5.1c-0.4,0-0.7-0.1-0.9-0.3c-0.2-0.2-0.3-0.5-0.3-0.9c0.5-5-3.1-9.4-3.1-9.5C0,3.7-0.1,3.2,0.1,2.8
	c0.2-0.4,0.7-0.6,1.1-0.5c0,0,0.8,0.1,2,0.1C5.4,2.4,8.5,2,11,0.2C11.3,0,11.6,0,11.9,0c0.3,0.1,0.6,0.3,0.7,0.6
	c0.1,0.2,2.6,4.8,8.9,5.3c0.3,0,0.6,0.2,0.8,0.5c0.2,0.3,0.2,0.6,0.2,0.9c0,0-1.2,4.7,1.7,8.1c0.2,0.2,0.4,0.5,0.4,0.8
	C24.6,16.9,24.1,17.4,23.5,17.4L23.5,17.4z M14.6,17.5c1.2-1,3.6-2.4,6.6-2.5c-1.4-2.7-1.3-5.4-1.1-7c-4.9-0.8-7.7-3.8-8.8-5.3
	c-2.8,1.6-5.9,2-8.1,2c1,1.8,2.3,4.7,2.3,8C7.6,12.8,11.5,13.7,14.6,17.5L14.6,17.5z M63,2.8c0.2,0.4,0.2,0.9-0.1,1.2
	c0,0-3.6,4.5-3.1,9.4c0,0.3-0.1,0.6-0.3,0.9c-0.2,0.2-0.5,0.4-0.8,0.3c-0.6,0-5.6,0.1-9.1,5.1c-0.2,0.3-0.5,0.4-0.8,0.5
	c-0.4,0-0.7-0.1-0.9-0.3c0,0-2.7-2.7-6.4-2.7c-0.5,0-1,0.1-1.6,0.2c-0.5,0.1-0.9-0.1-1.2-0.5c-0.2-0.4-0.2-0.9,0.1-1.3
	c3-3.4,1.8-8.1,1.8-8.2c-0.1-0.3,0-0.7,0.2-0.9C41,6.1,41.3,6,41.6,5.9c6.4-0.6,8.9-5.3,8.9-5.3c0.1-0.3,0.4-0.5,0.7-0.6
	c0.3-0.1,0.6,0,0.9,0.2c2.5,1.8,5.6,2.2,7.7,2.2c1.2,0,2-0.1,2-0.1C62.3,2.2,62.8,2.4,63,2.8L63,2.8z M57.6,12.6
	c0-3.3,1.3-6.2,2.3-8c-2.2,0-5.3-0.4-8.1-2C50.7,4.2,47.9,7.1,43,8c0.2,1.6,0.3,4.3-1.1,7c3,0.1,5.4,1.6,6.6,2.5
	C51.7,13.7,55.6,12.8,57.6,12.6L57.6,12.6z M39.6,31.2c-2.7,5.8,0.1,10.3,0.2,10.4c0.2,0.3,0.2,0.6,0.1,0.9
	c-0.1,0.3-0.3,0.6-0.6,0.7c-4.5,2.1-6.6,7.3-6.6,7.4c-0.2,0.4-0.6,0.7-1,0.7c-0.5,0-0.9-0.3-1-0.7c0-0.1-2.1-5.3-6.6-7.4
	c-0.3-0.1-0.5-0.4-0.6-0.7c-0.1-0.3,0-0.6,0.1-0.9c0.1-0.2,2.8-4.6,0.2-10.4c-0.1-0.3-0.1-0.6,0-0.9c0.1-0.3,0.4-0.5,0.7-0.6
	c0,0,4.8-1.3,6.2-5.6c0.1-0.5,0.6-0.8,1-0.8c0.5,0,0.9,0.3,1,0.8c1.4,4.3,6.2,5.6,6.2,5.6c0.3,0.1,0.6,0.3,0.7,0.6
	C39.7,30.6,39.7,30.9,39.6,31.2L39.6,31.2z M31.6,47.7c1-1.8,2.9-4.4,5.7-6c-0.8-1.8-2-5.6-0.2-10.3c-1.5-0.6-3.9-1.9-5.5-4.5
	c-1.6,2.5-4.1,3.9-5.5,4.4c1.7,4.7,0.6,8.5-0.2,10.3C28.7,43.3,30.5,45.9,31.6,47.7L31.6,47.7z"/>
</svg>
