<?xml version="1.0" encoding="utf-8"?>
<!-- Generator: Adobe Illustrator 16.0.0, SVG Export Plug-In . SVG Version: 6.00 Build 0)  -->
<!DOCTYPE svg PUBLIC "-//W3C//DTD SVG 1.1//EN" "http://www.w3.org/Graphics/SVG/1.1/DTD/svg11.dtd">
<svg version="1.1" id="Layer_1" xmlns="http://www.w3.org/2000/svg" xmlns:xlink="http://www.w3.org/1999/xlink" x="0px" y="0px"
	 width="1000px" height="1000px" viewBox="0 0 1000 1000" enable-background="new 0 0 1000 1000" xml:space="preserve">
<g id="XMLID_1_">
	<g>
		<path fill="#EBE527" d="M499.13,422.61c41.74,0,74.78,34.78,74.78,76.52c0,41.74-34.78,76.521-74.78,76.521
			c-41.74,0-74.78-34.78-74.78-76.521C424.35,457.39,459.13,422.61,499.13,422.61z"/>
		<path d="M982.61,480c10.43,0,19.13,8.7,19.13,19.13c0,10.44-8.7,19.13-19.13,19.13H610.43l-1.729,5.221L784.35,596.52
			c10.431,3.48,13.91,15.65,10.431,24.351c-3.48,6.96-10.431,12.17-17.391,12.17c-1.739,0-5.22,0-6.96-1.74l-173.91-73.04
			l-3.479,5.221L853.91,824.35c6.96,6.95,6.96,19.131,0,27.82c-3.48,3.48-8.69,5.22-13.91,5.22s-10.43-1.739-13.91-5.22
			L565.22,591.3c-1.739,1.74-3.479,1.74-5.22,3.48l71.3,173.92c3.48,10.43,0,20.87-10.43,24.34c-1.74,1.74-5.22,1.74-6.96,1.74
			c-6.95,0-13.91-5.21-17.391-12.17l-71.3-172.181c-1.739,0-3.479,1.74-6.96,1.74v366.96c0,10.44-8.689,19.13-19.13,19.13
			c-10.43,0-19.13-8.689-19.13-19.13V613.91c-1.74,0-3.48,0-6.96-1.74l-71.3,172.18c-3.48,6.95-10.44,12.17-17.39,12.17
			c-1.74,0-5.22,0-6.96-1.739c-10.43-3.48-13.91-15.65-10.43-24.351l71.3-173.91l-3.48-3.479L173.91,853.91
			c-3.48,3.479-8.69,5.22-13.91,5.22s-10.43-1.74-13.91-5.22c-6.96-6.95-6.96-19.13,0-27.82l260.87-260.87l-3.48-5.22l-173.91,73.04
			c-1.74,1.74-5.22,1.74-6.96,1.74c-6.96,0-13.91-5.21-17.39-12.17c-3.48-10.44,0-20.87,10.43-24.351l175.65-73.04l-1.73-5.22H19.13
			C8.7,520,0,511.3,0,500.87c0-10.44,8.7-19.13,19.13-19.13h370.44l1.73-5.22l-175.65-73.04c-10.43-3.48-13.91-15.65-10.43-24.35
			c3.48-10.43,15.65-13.91,24.35-10.43l173.91,73.04l3.48-5.22L146.09,175.65c-6.96-10.43-6.96-20.87,0-29.56
			c6.95-6.96,19.13-6.96,27.82,0l260.87,260.87c1.74-1.74,3.48-1.74,5.22-3.48l-71.3-173.91c-3.48-10.44,0-20.87,10.43-24.35
			c10.44-3.48,20.87,0,24.35,10.43l71.3,172.18c1.74,0,3.48-1.74,6.96-1.74V19.13C481.74,8.7,490.43,0,500.87,0
			C511.3,0,520,8.7,520,19.13v366.96c1.74,0,3.48,0,6.96,1.74l71.3-172.18c3.48-10.43,15.65-13.91,24.351-10.43
			c10.43,3.48,13.909,15.65,10.43,24.35l-71.3,173.91c1.74,1.74,3.479,1.74,5.22,3.48l260.87-260.87c6.95-6.96,19.13-6.96,27.82,0
			c6.96,6.95,6.96,19.13,0,27.82L594.78,434.78l3.479,5.22l173.91-73.04c10.44-3.48,20.87,0,24.35,10.43
			c3.48,10.44,0,20.87-10.43,24.35l-175.66,73.04l1.74,5.22H982.61z M573.91,499.13c0-41.74-33.04-76.52-74.78-76.52
			c-40,0-74.78,34.78-74.78,76.52c0,41.74,33.04,76.521,74.78,76.521C539.13,575.65,573.91,540.87,573.91,499.13z"/>
	</g>
	<g>
	</g>
</g>
</svg>
