<?xml version="1.0" encoding="utf-8"?>
<!-- Generator: Adobe Illustrator 16.0.0, SVG Export Plug-In . SVG Version: 6.00 Build 0)  -->
<!DOCTYPE svg PUBLIC "-//W3C//DTD SVG 1.1//EN" "http://www.w3.org/Graphics/SVG/1.1/DTD/svg11.dtd">
<svg version="1.1" id="Layer_1" xmlns="http://www.w3.org/2000/svg" xmlns:xlink="http://www.w3.org/1999/xlink" x="0px" y="0px"
	 width="999.604px" height="812.824px" viewBox="-0.313 93.276 999.604 812.824"
	 enable-background="new -0.313 93.276 999.604 812.824" xml:space="preserve">
<g id="XMLID_1_">
	<g>
		<path fill="#0F6C37" d="M587.03,590.98c-28.49,74.369-9.5,134.489,3.16,162.979c-44.301,25.31-74.37,66.45-90.19,94.93
			c-17.41-28.479-45.89-69.62-90.19-96.52c12.66-28.48,30.06-88.601,3.16-162.97c22.16-7.91,61.71-30.061,87.03-69.62
			C525.32,560.92,563.29,581.49,587.03,590.98z"/>
		<path fill="#0F6C37" d="M947.79,166.93c-15.83,28.48-36.4,74.37-36.4,126.58c-31.64,3.17-93.35,17.41-143.979,77.53
			c-18.99-14.24-56.97-37.97-104.44-39.55c22.16-42.72,20.57-85.45,17.41-110.76c77.53-14.24,121.83-60.13,139.24-85.45
			C863.92,160.6,912.97,166.93,947.79,166.93z"/>
		<path fill="#0F6C37" d="M318.04,220.73c-3.17,25.31-4.75,68.04,17.4,110.76c-47.47,1.58-85.44,23.73-104.43,39.55
			c-49.05-60.12-110.76-74.36-143.98-75.95c0-52.21-20.57-98.1-36.4-126.58c34.81,0,83.86-6.33,128.17-31.64
			C196.2,160.6,240.51,208.07,318.04,220.73z"/>
		<path d="M996.84,138.45c3.16,6.33,3.16,14.24-1.59,18.99c0,0-56.96,71.2-49.05,148.73c0,4.75-1.58,9.49-4.74,14.24
			c-3.17,3.17-7.92,6.33-12.66,4.75c-9.5,0-88.609,1.58-143.99,80.69c-3.159,4.75-7.909,6.33-12.659,7.92
			c-6.33,0-11.07-1.59-14.24-4.75c0,0-42.72-42.72-101.26-42.72c-7.92,0-15.83,1.58-25.32,3.16c-7.91,1.58-14.24-1.58-18.99-7.91
			c-3.16-6.33-3.16-14.24,1.58-20.57c47.47-53.8,28.49-128.16,28.49-129.75c-1.59-4.74,0-11.07,3.16-14.24
			c3.16-6.33,7.91-7.91,12.66-9.49c101.26-9.49,140.819-83.86,140.819-83.86c1.58-4.75,6.33-7.91,11.08-9.49
			c4.74-1.59,9.49,0,14.24,3.16c39.55,28.48,88.6,34.81,121.83,34.81c18.99,0,31.649-1.58,31.649-1.58
			C985.76,128.96,993.67,132.12,996.84,138.45z M911.39,293.51c0-52.21,20.57-98.1,36.4-126.58c-34.82,0-83.87-6.33-128.17-31.65
			c-17.41,25.32-61.71,71.21-139.24,85.45c3.16,25.31,4.75,68.04-17.41,110.76c47.471,1.58,85.45,25.31,104.44,39.55
			C818.04,310.92,879.75,296.68,911.39,293.51z"/>
		<path d="M629.75,752.37c3.16,4.75,3.16,9.5,1.58,14.24c-1.58,4.75-4.75,9.5-9.5,11.08c-71.2,33.229-104.42,115.51-104.42,117.09
			c-3.17,6.33-9.5,11.069-15.83,11.069c-7.91,0-14.24-4.739-15.82-11.069c0-1.58-33.23-83.86-104.43-117.09
			c-4.75-1.58-7.91-6.33-9.49-11.08c-1.59-4.74,0-9.49,1.58-14.24c1.58-3.16,44.3-72.78,3.16-164.55c-1.58-4.75-1.58-9.5,0-14.24
			c1.58-4.75,6.33-7.91,11.08-9.5c0,0,75.95-20.57,98.1-88.61c1.58-7.91,9.49-12.65,15.82-12.65c7.91,0,14.24,4.74,15.83,12.65
			c22.149,68.04,98.1,88.61,98.1,88.61c4.74,1.59,9.49,4.75,11.07,9.5c1.58,4.74,1.58,9.49,0,14.24
			C583.86,679.59,628.16,750.79,629.75,752.37z M590.19,753.96c-12.66-28.49-31.65-88.61-3.16-162.979
			c-23.74-9.49-61.71-30.061-87.03-71.2c-25.32,39.56-64.87,61.71-87.03,69.62c26.9,74.369,9.5,134.489-3.16,162.97
			c44.3,26.899,72.78,68.04,90.19,96.52C515.82,820.41,545.89,779.27,590.19,753.96z"/>
		<path d="M571.2,307.75c22.149,39.56,9.5,90.19-30.061,112.34c-39.56,22.16-90.189,9.5-112.34-30.06
			c-22.15-39.56-9.5-90.19,30.06-112.34C498.42,253.96,549.05,268.2,571.2,307.75z M523.73,390.03
			c22.159-12.66,30.069-42.72,17.409-64.87c-12.659-22.15-42.72-30.07-64.87-17.41c-23.74,12.66-31.65,42.72-17.41,64.88
			C471.52,394.78,501.58,402.69,523.73,390.03z"/>
		<path fill="#721E10" d="M541.14,325.16c12.66,22.15,4.75,52.21-17.409,64.87c-22.15,12.66-52.21,4.75-64.871-17.4
			c-14.24-22.16-6.33-52.22,17.41-64.88C498.42,295.09,528.48,303.01,541.14,325.16z"/>
		<path d="M382.91,337.82c3.17,3.16,6.33,7.91,6.33,12.65c0,11.08-7.91,18.99-17.4,18.99c-1.59,0-3.17,0-3.17,0
			c-7.91-1.58-15.82-3.16-25.32-3.16c-58.54,0-101.26,42.72-101.26,42.72c-3.17,3.16-7.91,4.75-12.66,4.75
			c-6.33,0-11.08-3.17-14.24-7.92c-53.8-77.53-132.91-80.69-142.41-80.69c-6.32,0-11.07-1.58-14.24-4.75
			c-3.16-3.16-4.74-7.91-4.74-14.24c7.91-79.11-49.05-148.73-49.05-150.32c-4.75-3.16-6.33-11.07-3.17-17.4
			c3.17-6.33,11.08-9.49,17.41-7.91c0,0,12.66,1.58,31.64,1.58c34.81,0,83.86-6.33,123.42-34.81c4.75-3.16,9.49-3.16,14.24-3.16
			c4.75,1.58,9.49,4.74,11.08,9.49c1.58,3.16,41.14,75.95,140.82,83.86c4.75,0,9.49,3.16,12.66,7.91c3.16,4.75,3.16,9.5,3.16,14.24
			C356.01,209.65,337.03,284.02,382.91,337.82z M335.44,331.49c-22.15-42.72-20.57-85.45-17.4-110.76
			c-77.53-12.66-121.84-60.13-139.24-83.86c-44.31,25.31-93.36,31.64-128.17,31.64c15.83,28.48,36.4,74.37,36.4,126.58
			c33.22,1.59,94.93,15.83,143.98,75.95C250,355.22,287.97,333.07,335.44,331.49z"/>
	</g>
	<g>
	</g>
</g>
</svg>
