<svg version="1.1" id="Layer_1" xmlns="http://www.w3.org/2000/svg" xmlns:xlink="http://www.w3.org/1999/xlink" x="0px" y="0px"
	 viewBox="183 -140.4 466.2 380.4" style="enable-background:new 183 -140.4 466.2 380.4;" xml:space="preserve">
<style type="text/css">
	.st0{fill:#FFFFFF;}
	.st1{fill:url(#SVGID_1_);}
	.st2{fill:url(#SVGID_2_);}
	.st3{fill:url(#SVGID_3_);}
	.st4{fill:url(#SVGID_4_);}
	.st5{fill:url(#SVGID_5_);}
	.st6{fill:url(#SVGID_6_);}
	.st7{fill:url(#SVGID_7_);}
	.st8{fill:#745D30;}
	.st9{fill:url(#SVGID_8_);}
	.st10{fill:url(#SVGID_9_);}
	.st11{fill:#525A63;}
	.st12{fill:url(#SVGID_10_);}
	.st13{fill:url(#SVGID_11_);}
	.st14{fill:url(#SVGID_12_);}
	.st15{fill:url(#SVGID_13_);}
	.st16{fill:url(#SVGID_14_);}
	.st17{fill:url(#SVGID_15_);}
	.st18{fill:url(#SVGID_16_);}
	.st19{fill:url(#SVGID_17_);}
	.st20{fill:#FFDD00;}
	.st21{fill:url(#SVGID_18_);}
	.st22{fill:url(#SVGID_19_);}
	.st23{fill:url(#SVGID_20_);}
	.st24{fill:url(#SVGID_21_);}
	.st25{fill:url(#SVGID_22_);}
	.st26{fill:url(#SVGID_23_);}
	.st27{fill:url(#SVGID_24_);}
	.st28{fill:url(#SVGID_25_);}
	.st29{fill:url(#SVGID_26_);}
	.st30{fill:url(#SVGID_27_);}
	.st31{fill:url(#SVGID_28_);}
	.st32{fill:url(#SVGID_29_);}
	.st33{fill:url(#SVGID_30_);}
</style>
<rect x="210.3" y="-14.9" width="411.6" height="227"/>
<path class="st0" d="M340.7-14.3c-42.3,0.3-84.5,1-126.8,1.9c-5.3,74-5.3,148,0.1,222c42.3,0.9,84.5,1.6,126.8,1.9
	C338.7,136.2,338.7,61,340.7-14.3z"/>
<path class="st0" d="M479.5-14.3c-42.3-0.3-84.5-0.3-126.8,0c-1.7,75.3-1.7,150.6,0,225.9c42.3,0.3,84.5,0.3,126.8,0
	C481.2,136.3,481.2,61,479.5-14.3z"/>
<path class="st0" d="M618.2-12.3c-42.3-0.9-84.5-1.6-126.8-1.9c2,75.2,2,150.5,0,225.7c42.3-0.3,84.5-1,126.8-1.9
	C623.6,135.6,623.6,61.6,618.2-12.3z"/>
<path d="M303-33c0,0,4.6,0.5,7.4,0.2c3.4-0.4,3.6-3.5,3.6-3.5s1,1.9-0.1,3.2C310.9-29.7,303-33,303-33z"/>
<linearGradient id="SVGID_1_" gradientUnits="userSpaceOnUse" x1="280.5" y1="-133.5177" x2="280.5" y2="123.0261" gradientTransform="matrix(1 0 0 -1 0 99.2)">
	<stop  offset="0" style="stop-color:#3B3B3E"/>
	<stop  offset="0.22" style="stop-color:#C3C6C8"/>
	<stop  offset="0.36" style="stop-color:#C3C6C8"/>
	<stop  offset="0.3624" style="stop-color:#C4C6C9"/>
	<stop  offset="0.4428" style="stop-color:#DCDDDF"/>
	<stop  offset="0.5248" style="stop-color:#EDEEEF"/>
	<stop  offset="0.6086" style="stop-color:#F9F9FA"/>
	<stop  offset="0.697" style="stop-color:#FFFFFF"/>
	<stop  offset="0.7435" style="stop-color:#F8F8F9"/>
	<stop  offset="0.7949" style="stop-color:#EBECED"/>
	<stop  offset="0.8485" style="stop-color:#D7D8DB"/>
	<stop  offset="0.8606" style="stop-color:#D1D3D6"/>
	<stop  offset="1" style="stop-color:#595B5F"/>
</linearGradient>
<path class="st1" d="M272.8-18.4c-1.2-1.8,1.3-5,5.6-7.1c4.2-2.2,8.6-2.5,9.8-0.7c1.2,1.8-1.3,5-5.6,7.1
	C278.4-16.9,274-16.6,272.8-18.4z"/>
<path d="M404.2-23.7c-1.1,0.9-2.3,1.6-3.6,2.1c-9.2,4.1-21.2-2.6-21.7-2.9l-3.2-1.7l3.5-1.1c0,0,2.2-0.8,5.8-3.4
	c2.1-1.6,4.3-3.5,6.4-5.8c0.6-0.7,1.3-1.3,2-1.8c6.6-4.9,14.9-2.6,18.4-0.6l1.1,0.6l-0.3,1.1c-0.1,0.3-1.7,8.5-8.1,13.2
	C404.5-23.9,404.2-23.7,404.2-23.7z"/>
<linearGradient id="SVGID_2_" gradientUnits="userSpaceOnUse" x1="395.35" y1="-126.799" x2="395.35" y2="124.3338" gradientTransform="matrix(1 0 0 -1 0 99.2)">
	<stop  offset="0" style="stop-color:#005B27"/>
	<stop  offset="0.22" style="stop-color:#36845B"/>
	<stop  offset="0.36" style="stop-color:#007446"/>
	<stop  offset="0.3871" style="stop-color:#007D49"/>
	<stop  offset="0.4464" style="stop-color:#008C4C"/>
	<stop  offset="0.5069" style="stop-color:#00974E"/>
	<stop  offset="0.5682" style="stop-color:#009E4F"/>
	<stop  offset="0.6309" style="stop-color:#00A350"/>
	<stop  offset="0.697" style="stop-color:#00A651"/>
	<stop  offset="0.7209" style="stop-color:#00A350"/>
	<stop  offset="0.7474" style="stop-color:#009E50"/>
	<stop  offset="0.7751" style="stop-color:#009651"/>
	<stop  offset="0.8035" style="stop-color:#008A51"/>
	<stop  offset="0.83" style="stop-color:#1C7A4F"/>
	<stop  offset="1" style="stop-color:#005B27"/>
</linearGradient>
<path class="st2" d="M410.9-37.6c0,0-10.5-5.9-18.1,2.1s-13,9.7-13,9.7s11,5.9,19.5,2.1C407.7-27.5,410.9-37.6,410.9-37.6z"/>
<linearGradient id="SVGID_3_" gradientUnits="userSpaceOnUse" x1="395.35" y1="-126.8126" x2="395.35" y2="124.3316" gradientTransform="matrix(1 0 0 -1 0 99.2)">
	<stop  offset="0" style="stop-color:#005B27"/>
	<stop  offset="0.22" style="stop-color:#36845B"/>
	<stop  offset="0.36" style="stop-color:#007446"/>
	<stop  offset="0.3871" style="stop-color:#007D49"/>
	<stop  offset="0.4464" style="stop-color:#008C4C"/>
	<stop  offset="0.5069" style="stop-color:#00974E"/>
	<stop  offset="0.5682" style="stop-color:#009E4F"/>
	<stop  offset="0.6309" style="stop-color:#00A350"/>
	<stop  offset="0.697" style="stop-color:#00A651"/>
	<stop  offset="0.7209" style="stop-color:#00A350"/>
	<stop  offset="0.7474" style="stop-color:#009E50"/>
	<stop  offset="0.7751" style="stop-color:#009651"/>
	<stop  offset="0.8035" style="stop-color:#008A51"/>
	<stop  offset="0.83" style="stop-color:#1C7A4F"/>
	<stop  offset="1" style="stop-color:#005B27"/>
</linearGradient>
<path class="st3" d="M392.8-35.5c-7.6,8-13,9.7-13,9.7s14.1,1.1,19.7-6.5c3.8-5.1,11.4-5.3,11.4-5.3S400.3-43.4,392.8-35.5z"/>
<path d="M427.9-23.7c1.1,0.9,2.3,1.6,3.6,2.1c9.2,4.1,21.2-2.6,21.7-2.9l3.2-1.7l-3.5-1.1c0,0-2.2-0.8-5.8-3.4
	c-2.1-1.6-4.3-3.5-6.4-5.8c-0.6-0.7-1.3-1.3-2-1.8c-6.6-4.9-14.9-2.6-18.4-0.6l-1.1,0.6l0.3,1.1c0.1,0.3,1.7,8.5,8.1,13.2
	C427.6-23.9,427.9-23.7,427.9-23.7z"/>
<linearGradient id="SVGID_4_" gradientUnits="userSpaceOnUse" x1="436.85" y1="-126.799" x2="436.85" y2="124.3338" gradientTransform="matrix(1 0 0 -1 0 99.2)">
	<stop  offset="0" style="stop-color:#005B27"/>
	<stop  offset="0.22" style="stop-color:#36845B"/>
	<stop  offset="0.36" style="stop-color:#007446"/>
	<stop  offset="0.3871" style="stop-color:#007D49"/>
	<stop  offset="0.4464" style="stop-color:#008C4C"/>
	<stop  offset="0.5069" style="stop-color:#00974E"/>
	<stop  offset="0.5682" style="stop-color:#009E4F"/>
	<stop  offset="0.6309" style="stop-color:#00A350"/>
	<stop  offset="0.697" style="stop-color:#00A651"/>
	<stop  offset="0.7209" style="stop-color:#00A350"/>
	<stop  offset="0.7474" style="stop-color:#009E50"/>
	<stop  offset="0.7751" style="stop-color:#009651"/>
	<stop  offset="0.8035" style="stop-color:#008A51"/>
	<stop  offset="0.83" style="stop-color:#1C7A4F"/>
	<stop  offset="1" style="stop-color:#005B27"/>
</linearGradient>
<path class="st4" d="M421.3-37.6c0,0,10.5-5.9,18.1,2.1s13,9.7,13,9.7s-11,5.9-19.5,2.1C424.4-27.5,421.3-37.6,421.3-37.6z"/>
<linearGradient id="SVGID_5_" gradientUnits="userSpaceOnUse" x1="436.75" y1="-126.8126" x2="436.75" y2="124.3316" gradientTransform="matrix(1 0 0 -1 0 99.2)">
	<stop  offset="0" style="stop-color:#005B27"/>
	<stop  offset="0.22" style="stop-color:#36845B"/>
	<stop  offset="0.36" style="stop-color:#007446"/>
	<stop  offset="0.3871" style="stop-color:#007D49"/>
	<stop  offset="0.4464" style="stop-color:#008C4C"/>
	<stop  offset="0.5069" style="stop-color:#00974E"/>
	<stop  offset="0.5682" style="stop-color:#009E4F"/>
	<stop  offset="0.6309" style="stop-color:#00A350"/>
	<stop  offset="0.697" style="stop-color:#00A651"/>
	<stop  offset="0.7209" style="stop-color:#00A350"/>
	<stop  offset="0.7474" style="stop-color:#009E50"/>
	<stop  offset="0.7751" style="stop-color:#009651"/>
	<stop  offset="0.8035" style="stop-color:#008A51"/>
	<stop  offset="0.83" style="stop-color:#1C7A4F"/>
	<stop  offset="1" style="stop-color:#005B27"/>
</linearGradient>
<path class="st5" d="M439.3-35.5c7.6,8,13,9.7,13,9.7s-14.1,1.1-19.7-6.5c-3.8-5.1-11.4-5.3-11.4-5.3S431.8-43.4,439.3-35.5z"/>
<linearGradient id="SVGID_6_" gradientUnits="userSpaceOnUse" x1="576.35" y1="-340.2853" x2="576.35" y2="-87.9534" gradientTransform="matrix(1 0 0 -1 0 99.2)">
	<stop  offset="0" style="stop-color:#1D0000"/>
	<stop  offset="0.22" style="stop-color:#B82E42"/>
	<stop  offset="0.36" style="stop-color:#B10836"/>
	<stop  offset="0.3945" style="stop-color:#BD0D36"/>
	<stop  offset="0.4671" style="stop-color:#D11535"/>
	<stop  offset="0.5413" style="stop-color:#DF1832"/>
	<stop  offset="0.6171" style="stop-color:#E81A30"/>
	<stop  offset="0.697" style="stop-color:#ED1B30"/>
	<stop  offset="0.7256" style="stop-color:#E81A30"/>
	<stop  offset="0.7573" style="stop-color:#DD1832"/>
	<stop  offset="0.7905" style="stop-color:#CC1335"/>
	<stop  offset="0.8244" style="stop-color:#B50A36"/>
	<stop  offset="0.83" style="stop-color:#B10836"/>
	<stop  offset="1" style="stop-color:#1D0000"/>
</linearGradient>
<path class="st6" d="M567.1,228.6c-2.5-5.3-0.4-11.4,4.7-13.5c5.1-2.1,11.3,0.5,13.8,5.9c2.5,5.3,0.4,11.4-4.7,13.5
	C575.8,236.6,569.6,234,567.1,228.6z"/>
<linearGradient id="SVGID_7_" gradientUnits="userSpaceOnUse" x1="573.3" y1="-344.1408" x2="573.3" y2="-87.5934" gradientTransform="matrix(1 0 0 -1 0 99.2)">
	<stop  offset="0" style="stop-color:#3B3B3E"/>
	<stop  offset="0.22" style="stop-color:#C3C6C8"/>
	<stop  offset="0.36" style="stop-color:#C3C6C8"/>
	<stop  offset="0.3624" style="stop-color:#C4C6C9"/>
	<stop  offset="0.4428" style="stop-color:#DCDDDF"/>
	<stop  offset="0.5248" style="stop-color:#EDEEEF"/>
	<stop  offset="0.6086" style="stop-color:#F9F9FA"/>
	<stop  offset="0.697" style="stop-color:#FFFFFF"/>
	<stop  offset="0.7435" style="stop-color:#F8F8F9"/>
	<stop  offset="0.7949" style="stop-color:#EBECED"/>
	<stop  offset="0.8485" style="stop-color:#D7D8DB"/>
	<stop  offset="0.8606" style="stop-color:#D1D3D6"/>
	<stop  offset="1" style="stop-color:#595B5F"/>
</linearGradient>
<path class="st7" d="M567.1,222.2c-0.9-1.4,1.1-4,4.5-5.7c3.4-1.7,6.9-2,7.9-0.5c0.9,1.4-1.1,4-4.5,5.7
	C571.6,223.4,568,223.6,567.1,222.2z"/>
<path d="M549.8,217.8c0.6,1.5,0.9,3.1,0.9,4.8c0,6.9-5.6,12.9-13.9,16c9.1-2.3,15.5-7.7,15.5-14.1
	C552.2,222.1,551.4,219.8,549.8,217.8z"/>
<path d="M606.9,210.3c0.7,1.9,1.1,3.9,1.1,6c0,8.7-6.4,16.2-15.9,20c10.3-2.8,17.7-9.7,17.7-17.7
	C609.7,215.7,608.7,212.9,606.9,210.3z"/>
<path class="st8" d="M565-16.9c0.2,0.4,0.3,0.7,0.3,1.2c0,1.6-1.4,2.8-3.2,2.8c-0.5,0-0.9-0.1-1.3-0.2c0.5,0.7,1.5,1.2,2.6,1.2
	c1.7,0,3.1-1.2,3.1-2.7C566.4-15.6,565.9-16.4,565-16.9z"/>
<linearGradient id="SVGID_8_" gradientUnits="userSpaceOnUse" x1="536.4" y1="-132.5714" x2="536.4" y2="123.9884" gradientTransform="matrix(1 0 0 -1 0 99.2)">
	<stop  offset="0" style="stop-color:#3B3B3E"/>
	<stop  offset="0.22" style="stop-color:#C3C6C8"/>
	<stop  offset="0.36" style="stop-color:#C3C6C8"/>
	<stop  offset="0.3624" style="stop-color:#C4C6C9"/>
	<stop  offset="0.4428" style="stop-color:#DCDDDF"/>
	<stop  offset="0.5248" style="stop-color:#EDEEEF"/>
	<stop  offset="0.6086" style="stop-color:#F9F9FA"/>
	<stop  offset="0.697" style="stop-color:#FFFFFF"/>
	<stop  offset="0.7435" style="stop-color:#F8F8F9"/>
	<stop  offset="0.7949" style="stop-color:#EBECED"/>
	<stop  offset="0.8485" style="stop-color:#D7D8DB"/>
	<stop  offset="0.8606" style="stop-color:#D1D3D6"/>
	<stop  offset="1" style="stop-color:#595B5F"/>
</linearGradient>
<path class="st9" d="M528.7-19.5c-1.2-1.8,1.3-5,5.6-7.1c4.2-2.2,8.6-2.5,9.8-0.7c1.2,1.8-1.3,5-5.6,7.1
	C534.3-18,529.9-17.7,528.7-19.5z"/>
<path d="M201.6-16.3c-3.3,76.6-3.3,153.2,0,229.8c143,2.4,286,2.4,429,0c3.3-76.6,3.3-153.2,0-229.8
	C487.6-18.7,344.6-18.7,201.6-16.3z M618.3,207c-134.8,2-269.6,2-404.4,0c-2.7-72.3-2.7-144.5,0-216.8c134.8-2,269.6-2,404.4,0
	C621,62.5,621,134.7,618.3,207z"/>
<linearGradient id="SVGID_9_" gradientUnits="userSpaceOnUse" x1="270.1" y1="112.1742" x2="270.1" y2="129.7742" gradientTransform="matrix(1 0 0 -1 0 99.2)">
	<stop  offset="0" style="stop-color:#000000"/>
	<stop  offset="1" style="stop-color:#3C434C"/>
</linearGradient>
<path class="st10" d="M339.1-30.6c-46,0.3-92,0.9-137.9,1.8c-0.6,0-1.2,0.3-1.6,0.6c0.1,0.2,0.2,0.4,0.4,0.6
	c4,4.9,8.1,9.7,12.1,14.6c42.6-0.7,85.3-1.1,127.9-1.4c0.2-5.2,0.4-10.4,0.6-15.7C340.3-30.3,339.7-30.6,339.1-30.6z"/>
<path class="st11" d="M345.9-29.4c-0.1-0.2-0.2-0.4-0.3-0.7c-0.6,0.4-0.9,1.1-0.9,1.9c-0.6,42.3-1,84.6-1,126.8
	c0,42.3,0.3,84.6,1,126.8c0,0.8,0.4,1.4,0.9,1.9c0.1-0.2,0.2-0.4,0.3-0.7c2.1-5,4.1-10,6.2-15c-0.9-75.3-0.9-150.7,0-226
	C350-19.4,348-24.4,345.9-29.4z"/>
<path class="st11" d="M486.5-30.1c-0.1,0.2-0.2,0.4-0.3,0.7c-2.1,5-4.1,10-6.2,15c0.9,75.3,0.9,150.7,0,226c2.1,5,4.1,10,6.2,15
	c0.1,0.2,0.2,0.4,0.3,0.7c0.5-0.4,0.9-1.1,0.9-1.9c0.6-42.3,1-84.6,1-126.8c0-42.3-0.3-84.6-1-126.8C487.4-29,487.1-29.6,486.5-30.1
	z"/>
<path class="st11" d="M491.5-30c-0.5,0.4-0.8,1.1-0.8,1.8c1.3,84.5,1.3,169.1,0,253.6c0,0.8,0.4,1.5,1,1.9
	c0.2-5.3,0.3-10.5,0.5-15.8c1.1-75.3,1.1-150.6,0-225.9C491.9-19.6,491.7-24.8,491.5-30z"/>
<path class="st11" d="M632.6-28.2c-0.1,0.2-0.2,0.4-0.4,0.6c-4,4.9-8.1,9.7-12.1,14.6c2.9,74.4,2.9,148.8,0,223.2
	c4.1,4.9,8.1,9.8,12.2,14.6c0.1,0.2,0.3,0.4,0.4,0.5c0.5-0.4,0.8-1.1,0.9-1.7c3.9-83.4,3.9-166.7,0-250.1
	C633.4-27.1,633.1-27.7,632.6-28.2z"/>
<path class="st11" d="M212.1-13c-4.1-4.9-8.1-9.8-12.1-14.6c-0.1-0.2-0.2-0.4-0.4-0.6c-0.5,0.4-0.8,1.1-0.9,1.8
	c-3.9,83.4-3.9,166.7,0,250.1c0,0.7,0.4,1.3,0.9,1.7c0.1-0.2,0.3-0.4,0.4-0.5c4-4.9,8.1-9.7,12.2-14.6
	C209.2,135.8,209.2,61.4,212.1-13z"/>
<path class="st11" d="M340.7-30c-0.2,5.2-0.4,10.4-0.6,15.7c-1.1,75.3-1.1,150.6,0,225.9c0.1,5.3,0.3,10.5,0.5,15.8
	c0.6-0.4,1-1.1,1-1.9c-1.4-84.5-1.4-169.1,0-253.6C341.5-28.9,341.2-29.6,340.7-30z"/>
<linearGradient id="SVGID_10_" gradientUnits="userSpaceOnUse" x1="269.95" y1="-128.6" x2="269.95" y2="-111.0208" gradientTransform="matrix(1 0 0 -1 0 99.2)">
	<stop  offset="0" style="stop-color:#A7ACB3"/>
	<stop  offset="1" style="stop-color:#505861"/>
</linearGradient>
<path class="st12" d="M340,211.6c-42.6-0.2-85.3-0.7-127.9-1.4c-4.1,4.9-8.1,9.8-12.2,14.6c-0.1,0.2-0.3,0.4-0.4,0.5
	c0.4,0.4,1,0.6,1.6,0.7c46,0.9,92,1.4,137.9,1.8c0.5,0,1-0.2,1.4-0.4C340.3,222.1,340.2,216.8,340,211.6z"/>
<linearGradient id="SVGID_11_" gradientUnits="userSpaceOnUse" x1="416.05" y1="113.6" x2="416.05" y2="130.017" gradientTransform="matrix(1 0 0 -1 0 99.2)">
	<stop  offset="0" style="stop-color:#000000"/>
	<stop  offset="1" style="stop-color:#3C434C"/>
</linearGradient>
<path class="st13" d="M485.1-30.6c-23-0.1-46-0.2-69-0.2s-46,0.1-69,0.2c-0.6,0-1.1,0.2-1.5,0.5c0.1,0.2,0.2,0.4,0.3,0.7
	c2.1,5,4.1,10,6.2,15c42.6-0.2,85.3-0.2,127.9,0c2.1-5,4.1-10,6.2-15c0.1-0.2,0.2-0.4,0.3-0.7C486.1-30.4,485.6-30.6,485.1-30.6z"/>
<linearGradient id="SVGID_12_" gradientUnits="userSpaceOnUse" x1="416.2" y1="-128.8566" x2="416.2" y2="-112.4386" gradientTransform="matrix(1 0 0 -1 0 99.2)">
	<stop  offset="0" style="stop-color:#A7ACB3"/>
	<stop  offset="1" style="stop-color:#505861"/>
</linearGradient>
<path class="st14" d="M486.3,226.6c-2.1-5-4.1-10-6.2-15c-42.6,0.2-85.3,0.2-127.9,0c-2.1,5-4.1,10-6.2,15c-0.1,0.2-0.2,0.4-0.3,0.7
	c0.4,0.3,0.9,0.5,1.5,0.5c23,0.1,46,0.2,69,0.2s46-0.1,69-0.2c0.6,0,1.1-0.2,1.5-0.5C486.4,227.1,486.3,226.9,486.3,226.6z"/>
<linearGradient id="SVGID_13_" gradientUnits="userSpaceOnUse" x1="562.15" y1="112.1869" x2="562.15" y2="129.7651" gradientTransform="matrix(1 0 0 -1 0 99.2)">
	<stop  offset="0" style="stop-color:#000000"/>
	<stop  offset="1" style="stop-color:#3C434C"/>
</linearGradient>
<path class="st15" d="M631-28.8c-46-0.9-92-1.4-137.9-1.8c-0.6,0-1.1,0.2-1.5,0.6c0.2,5.2,0.4,10.4,0.6,15.7
	c42.6,0.2,85.3,0.7,127.9,1.4c4.1-4.9,8.1-9.8,12.2-14.6c0.1-0.2,0.2-0.4,0.4-0.6C632.1-28.6,631.6-28.8,631-28.8z"/>
<linearGradient id="SVGID_14_" gradientUnits="userSpaceOnUse" x1="562.05" y1="-128.6" x2="562.05" y2="-111.0209" gradientTransform="matrix(1 0 0 -1 0 99.2)">
	<stop  offset="0" style="stop-color:#A7ACB3"/>
	<stop  offset="1" style="stop-color:#505861"/>
</linearGradient>
<path class="st16" d="M632.2,224.8c-4-4.9-8.1-9.7-12.2-14.6c-42.6,0.7-85.3,1.1-127.9,1.4c-0.1,5.3-0.3,10.5-0.5,15.8
	c0.4,0.3,0.9,0.4,1.4,0.4c46-0.3,92-0.9,137.9-1.8c0.6,0,1.2-0.3,1.6-0.7C632.5,225.2,632.3,225,632.2,224.8z"/>
<linearGradient id="SVGID_15_" gradientUnits="userSpaceOnUse" x1="416.1" y1="-140.85" x2="416.1" y2="141.975" gradientTransform="matrix(1 0 0 -1 0 99.2)">
	<stop  offset="0" style="stop-color:#232931"/>
	<stop  offset="1" style="stop-color:#A7ACB3"/>
</linearGradient>
<path class="st17" d="M186.9-40.3c-5.2,92.6-5.2,185.2,0,277.8c152.8,3.4,305.6,3.4,458.4,0c5.2-92.6,5.2-185.2,0-277.8
	C492.5-43.6,339.7-43.6,186.9-40.3z M637.2,231.1c-147.5,3-295.1,3-442.6,0c-4.5-88.3-4.5-176.5,0-264.8c147.5-3,295.1-3,442.6,0
	C641.7,54.6,641.7,142.9,637.2,231.1z"/>
<linearGradient id="SVGID_16_" gradientUnits="userSpaceOnUse" x1="416.1" y1="-161.3048" x2="416.1" y2="160.13" gradientTransform="matrix(1 0 0 -1 0 99.2)">
	<stop  offset="0" style="stop-color:#3B3B3E"/>
	<stop  offset="0.2545" style="stop-color:#A0A3A7"/>
	<stop  offset="0.36" style="stop-color:#85888C"/>
	<stop  offset="0.3604" style="stop-color:#85888C"/>
	<stop  offset="0.414" style="stop-color:#A6A9AD"/>
	<stop  offset="0.4681" style="stop-color:#C4C6C9"/>
	<stop  offset="0.5234" style="stop-color:#DBDDDF"/>
	<stop  offset="0.5794" style="stop-color:#EDEEEF"/>
	<stop  offset="0.6366" style="stop-color:#F9F9FA"/>
	<stop  offset="0.697" style="stop-color:#FFFFFF"/>
	<stop  offset="0.7336" style="stop-color:#F8F8F9"/>
	<stop  offset="0.7741" style="stop-color:#EBECED"/>
	<stop  offset="0.8166" style="stop-color:#D7D8DB"/>
	<stop  offset="0.86" style="stop-color:#BCBEC1"/>
	<stop  offset="0.8848" style="stop-color:#AAACB0"/>
	<stop  offset="1" style="stop-color:#3B3B3E"/>
</linearGradient>
<path class="st18" d="M187.8-39.3c-5.1,91.9-5.1,183.8,0,275.7c152.2,3.3,304.4,3.3,456.6,0c5.1-91.9,5.1-183.8,0-275.7
	C492.2-42.6,340-42.6,187.8-39.3z M341.5,225.4c0,0.8-0.4,1.5-1,1.9c-0.4,0.3-0.9,0.4-1.4,0.4c-46-0.3-92-0.9-137.9-1.8
	c-0.6,0-1.2-0.3-1.6-0.7c-0.5-0.4-0.8-1.1-0.9-1.7c-3.9-83.4-3.9-166.7,0-250.1c0-0.7,0.4-1.3,0.9-1.8c0.4-0.4,1-0.6,1.6-0.6
	c46-0.9,92-1.4,137.9-1.8c0.6,0,1.1,0.2,1.5,0.6c0.5,0.4,0.8,1.1,0.8,1.8C340.1,56.3,340.1,140.9,341.5,225.4z M487.4,225.4
	c0,0.8-0.4,1.4-0.9,1.9c-0.4,0.3-0.9,0.5-1.5,0.5c-46,0.3-92,0.3-137.9,0c-0.6,0-1.1-0.2-1.5-0.5c-0.6-0.4-0.9-1.1-0.9-1.9
	c-1.3-84.6-1.3-169.1,0-253.7c0-0.8,0.4-1.4,0.9-1.9c0.4-0.3,0.9-0.5,1.5-0.5c46-0.3,92-0.3,137.9,0c0.6,0,1.1,0.2,1.5,0.5
	c0.5,0.4,0.9,1.1,0.9,1.9C488.7,56.3,488.7,140.9,487.4,225.4z M633.4,223.6c0,0.7-0.4,1.3-0.9,1.7c-0.4,0.4-1,0.6-1.6,0.7
	c-46,0.9-92,1.4-137.9,1.8c-0.5,0-1-0.2-1.4-0.4c-0.6-0.4-1-1.1-1-1.9c1.3-84.5,1.3-169.1,0-253.6c0-0.7,0.3-1.4,0.8-1.8
	c0.4-0.4,0.9-0.6,1.5-0.6c46,0.3,92,0.9,137.9,1.8c0.6,0,1.2,0.3,1.6,0.6c0.5,0.4,0.8,1.1,0.9,1.8
	C637.4,56.9,637.4,140.3,633.4,223.6z"/>
<radialGradient id="SVGID_17_" cx="416.2" cy="204.4" r="32.9317" gradientTransform="matrix(1 0 0 -1 0 99.2)" gradientUnits="userSpaceOnUse">
	<stop  offset="0" style="stop-color:#FFFFFF"/>
	<stop  offset="0.6121" style="stop-color:#ED1B30"/>
	<stop  offset="0.8667" style="stop-color:#940038"/>
	<stop  offset="1" style="stop-color:#1D0000"/>
</radialGradient>
<circle class="st19" cx="416.2" cy="-105.2" r="30.1"/>
<polygon class="st20" points="416.1,-140.4 426.4,-119.5 449.4,-116.2 432.7,-99.9 436.7,-77 416.1,-87.8 395.5,-77 399.4,-99.9 
	382.7,-116.2 405.8,-119.5 "/>
<radialGradient id="SVGID_18_" cx="416.05" cy="207.9" r="32.5355" gradientTransform="matrix(1 0 0 -1 0 99.2)" gradientUnits="userSpaceOnUse">
	<stop  offset="0" style="stop-color:#FFFFFF"/>
	<stop  offset="0.2986" style="stop-color:#FFFEF8"/>
	<stop  offset="0.6501" style="stop-color:#FFFBEC"/>
	<stop  offset="1" style="stop-color:#FFF7DA"/>
</radialGradient>
<polygon class="st21" points="416.1,-140.4 417.7,-107.6 449.4,-116.2 418.8,-104.5 436.7,-77 416.1,-102.5 395.5,-77 413.4,-104.5 
	382.7,-116.2 414.4,-107.6 "/>
<radialGradient id="SVGID_19_" cx="346.1" cy="193.2626" r="19.6061" gradientTransform="matrix(1 0 0 -1 0 99.2)" gradientUnits="userSpaceOnUse">
	<stop  offset="0" style="stop-color:#FFFFFF"/>
	<stop  offset="0.6121" style="stop-color:#ED1B30"/>
	<stop  offset="0.8667" style="stop-color:#940038"/>
	<stop  offset="1" style="stop-color:#1D0000"/>
</radialGradient>
<circle class="st22" cx="346.1" cy="-94.1" r="18.1"/>
<radialGradient id="SVGID_20_" cx="486.1" cy="193.2626" r="19.6061" gradientTransform="matrix(1 0 0 -1 0 99.2)" gradientUnits="userSpaceOnUse">
	<stop  offset="0" style="stop-color:#FFFFFF"/>
	<stop  offset="0.6121" style="stop-color:#ED1B30"/>
	<stop  offset="0.8667" style="stop-color:#940038"/>
	<stop  offset="1" style="stop-color:#1D0000"/>
</radialGradient>
<circle class="st23" cx="486.1" cy="-94.1" r="18.1"/>
<polygon class="st20" points="346.1,-115 352.2,-102.5 366.1,-100.5 356.1,-90.8 358.4,-77 346.1,-83.5 333.7,-77 336.1,-90.8 
	326.1,-100.5 339.9,-102.5 "/>
<radialGradient id="SVGID_21_" cx="346.1" cy="195.2" r="19.5064" gradientTransform="matrix(1 0 0 -1 0 99.2)" gradientUnits="userSpaceOnUse">
	<stop  offset="0" style="stop-color:#FFFFFF"/>
	<stop  offset="0.2986" style="stop-color:#FFFEF8"/>
	<stop  offset="0.6501" style="stop-color:#FFFBEC"/>
	<stop  offset="1" style="stop-color:#FFF7DA"/>
</radialGradient>
<polygon class="st24" points="346.1,-115 347.1,-95.4 366.1,-100.5 347.7,-93.5 358.4,-77 346.1,-92.3 333.7,-77 344.4,-93.5 
	326.1,-100.5 345.1,-95.4 "/>
<radialGradient id="SVGID_22_" cx="296.0643" cy="181.2442" r="11.9398" gradientTransform="matrix(1 0 0 -1 0 99.2)" gradientUnits="userSpaceOnUse">
	<stop  offset="0" style="stop-color:#FFFFFF"/>
	<stop  offset="0.6121" style="stop-color:#ED1B30"/>
	<stop  offset="0.8667" style="stop-color:#940038"/>
	<stop  offset="1" style="stop-color:#1D0000"/>
</radialGradient>
<circle class="st25" cx="296.1" cy="-82" r="10.8"/>
<radialGradient id="SVGID_23_" cx="536.065" cy="181.2442" r="11.9397" gradientTransform="matrix(1 0 0 -1 0 99.2)" gradientUnits="userSpaceOnUse">
	<stop  offset="0" style="stop-color:#FFFFFF"/>
	<stop  offset="0.6121" style="stop-color:#ED1B30"/>
	<stop  offset="0.8667" style="stop-color:#940038"/>
	<stop  offset="1" style="stop-color:#1D0000"/>
</radialGradient>
<circle class="st26" cx="536.1" cy="-82" r="10.8"/>
<polygon class="st20" points="296.1,-94.8 299.8,-87.3 308.1,-86.1 302.1,-80.3 303.5,-72 296.1,-75.9 288.6,-72 290.1,-80.3 
	284.1,-86.1 292.4,-87.3 "/>
<radialGradient id="SVGID_24_" cx="296.065" cy="182.6" r="11.7218" gradientTransform="matrix(1 0 0 -1 0 99.2)" gradientUnits="userSpaceOnUse">
	<stop  offset="0" style="stop-color:#FFFFFF"/>
	<stop  offset="0.2986" style="stop-color:#FFFEF8"/>
	<stop  offset="0.6501" style="stop-color:#FFFBEC"/>
	<stop  offset="1" style="stop-color:#FFF7DA"/>
</radialGradient>
<polygon class="st27" points="296.1,-94.8 296.7,-83 308.1,-86.1 297,-81.9 303.5,-72 296.1,-81.2 288.6,-72 295.1,-81.9 
	284.1,-86.1 295.5,-83 "/>
<radialGradient id="SVGID_25_" cx="266.0648" cy="166.3" r="7.3056" gradientTransform="matrix(1 0 0 -1 0 99.2)" gradientUnits="userSpaceOnUse">
	<stop  offset="0" style="stop-color:#FFFFFF"/>
	<stop  offset="0.6121" style="stop-color:#ED1B30"/>
	<stop  offset="0.8667" style="stop-color:#940038"/>
	<stop  offset="1" style="stop-color:#1D0000"/>
</radialGradient>
<circle class="st28" cx="266.1" cy="-67.1" r="6.5"/>
<radialGradient id="SVGID_26_" cx="566.064" cy="166.3" r="7.3058" gradientTransform="matrix(1 0 0 -1 0 99.2)" gradientUnits="userSpaceOnUse">
	<stop  offset="0" style="stop-color:#FFFFFF"/>
	<stop  offset="0.6121" style="stop-color:#ED1B30"/>
	<stop  offset="0.8667" style="stop-color:#940038"/>
	<stop  offset="1" style="stop-color:#1D0000"/>
</radialGradient>
<circle class="st29" cx="566.1" cy="-67.1" r="6.5"/>
<polygon class="st20" points="266.1,-74.7 268.3,-70.2 273.3,-69.5 269.7,-66 270.5,-61 266.1,-63.3 261.6,-61 262.5,-66 
	258.9,-69.5 263.8,-70.2 "/>
<radialGradient id="SVGID_27_" cx="266.065" cy="167.05" r="7.0245" gradientTransform="matrix(1 0 0 -1 0 99.2)" gradientUnits="userSpaceOnUse">
	<stop  offset="0" style="stop-color:#FFFFFF"/>
	<stop  offset="0.2986" style="stop-color:#FFFEF8"/>
	<stop  offset="0.6501" style="stop-color:#FFFBEC"/>
	<stop  offset="1" style="stop-color:#FFF7DA"/>
</radialGradient>
<polygon class="st30" points="266.1,-74.7 266.4,-67.6 273.3,-69.5 266.6,-66.9 270.5,-61 266.1,-66.5 261.6,-61 265.5,-66.9 
	258.9,-69.5 265.7,-67.6 "/>
<polygon class="st20" points="486.1,-115 492.2,-102.5 506.1,-100.5 496.1,-90.8 498.4,-77 486.1,-83.5 473.7,-77 476.1,-90.8 
	466.1,-100.5 479.9,-102.5 "/>
<radialGradient id="SVGID_28_" cx="486.1" cy="195.2" r="19.5064" gradientTransform="matrix(1 0 0 -1 0 99.2)" gradientUnits="userSpaceOnUse">
	<stop  offset="0" style="stop-color:#FFFFFF"/>
	<stop  offset="0.2986" style="stop-color:#FFFEF8"/>
	<stop  offset="0.6501" style="stop-color:#FFFBEC"/>
	<stop  offset="1" style="stop-color:#FFF7DA"/>
</radialGradient>
<polygon class="st31" points="486.1,-115 487.1,-95.4 506.1,-100.5 487.7,-93.5 498.4,-77 486.1,-92.3 473.7,-77 484.4,-93.5 
	466.1,-100.5 485.1,-95.4 "/>
<polygon class="st20" points="536.1,-94.8 539.8,-87.3 548.1,-86.1 542.1,-80.3 543.5,-72 536.1,-75.9 528.6,-72 530.1,-80.3 
	524.1,-86.1 532.4,-87.3 "/>
<radialGradient id="SVGID_29_" cx="536.065" cy="182.6" r="11.7218" gradientTransform="matrix(1 0 0 -1 0 99.2)" gradientUnits="userSpaceOnUse">
	<stop  offset="0" style="stop-color:#FFFFFF"/>
	<stop  offset="0.2986" style="stop-color:#FFFEF8"/>
	<stop  offset="0.6501" style="stop-color:#FFFBEC"/>
	<stop  offset="1" style="stop-color:#FFF7DA"/>
</radialGradient>
<polygon class="st32" points="536.1,-94.8 536.7,-83 548.1,-86.1 537,-81.9 543.5,-72 536.1,-81.2 528.6,-72 535.1,-81.9 
	524.1,-86.1 535.5,-83 "/>
<polygon class="st20" points="566.1,-74.7 568.3,-70.2 573.3,-69.5 569.7,-66 570.5,-61 566.1,-63.3 561.6,-61 562.5,-66 
	558.9,-69.5 563.8,-70.2 "/>
<radialGradient id="SVGID_30_" cx="566.065" cy="167.05" r="7.0248" gradientTransform="matrix(1 0 0 -1 0 99.2)" gradientUnits="userSpaceOnUse">
	<stop  offset="0" style="stop-color:#FFFFFF"/>
	<stop  offset="0.2986" style="stop-color:#FFFEF8"/>
	<stop  offset="0.6501" style="stop-color:#FFFBEC"/>
	<stop  offset="1" style="stop-color:#FFF7DA"/>
</radialGradient>
<polygon class="st33" points="566.1,-74.7 566.4,-67.6 573.3,-69.5 566.6,-66.9 570.5,-61 566.1,-66.5 561.6,-61 565.5,-66.9 
	558.9,-69.5 565.7,-67.6 "/>
</svg>
