<?xml version="1.0" encoding="utf-8"?>
<!-- Generator: Adobe Illustrator 19.1.0, SVG Export Plug-In . SVG Version: 6.00 Build 0)  -->
<svg version="1.1" id="Layer_1" xmlns="http://www.w3.org/2000/svg" xmlns:xlink="http://www.w3.org/1999/xlink" x="0px" y="0px"
	 viewBox="0 0 510.7 650" style="enable-background:new 0 0 510.7 650;" xml:space="preserve">
<style type="text/css">
	.st0{fill:#E15C49;}
	.st1{fill:#EFC84A;}
	.st2{fill:#2C424F;}
	.st3{fill:#ECEDEE;}
	.st4{fill:#7F8E8F;}
	.st5{fill:#BCC3C7;}
	.st6{fill:#E9A343;}
</style>
<g>
	<path class="st0" d="M485.6,231.4H318.7c-9.7-25.6-34.4-43.9-63.4-43.9c-29,0-53.7,18.3-63.4,43.9H25.1
		C37.1,115,135.8,23.9,255.3,23.9C374.9,23.9,473.6,115,485.6,231.4z"/>
	<path class="st1" d="M510.7,255.3L510.7,255.3H0C0,114.3,114.3,0,255.3,0C396.4,0,510.7,114.3,510.7,255.3z M318.7,231.4h166.8
		C473.6,115,374.9,23.9,255.3,23.9C135.8,23.9,37.1,115,25.1,231.4h166.8c9.7-25.6,34.4-43.9,63.4-43.9
		C284.3,187.6,309.1,205.8,318.7,231.4z"/>
</g>
<g>
	<rect x="352.1" y="537" class="st2" width="127.5" height="17.7"/>
	<g>
		<path class="st0" d="M42.3,532c7.7,0,13.8,6.2,13.8,13.8c0,7.7-6.2,13.8-13.8,13.8c-7.7,0-13.9-6.2-13.9-13.8
			C28.4,538.2,34.6,532,42.3,532z"/>
		<path class="st0" d="M93.9,532c7.6,0,13.9,6.2,13.9,13.8c0,7.7-6.2,13.8-13.9,13.8c-7.7,0-13.9-6.2-13.9-13.8
			C80,538.2,86.2,532,93.9,532z"/>
		<path class="st0" d="M145.5,532c7.6,0,13.8,6.2,13.8,13.8c0,7.7-6.2,13.8-13.8,13.8c-7.7,0-13.9-6.2-13.9-13.8
			C131.6,538.2,137.8,532,145.5,532z"/>
	</g>
	<path class="st3" d="M510.7,516.4v59H0v-59H510.7z M479.6,554.7V537H352.1v17.7H479.6z M159.3,545.9c0-7.7-6.2-13.8-13.8-13.8
		c-7.7,0-13.9,6.2-13.9,13.8c0,7.7,6.2,13.8,13.9,13.8C153.1,559.7,159.3,553.5,159.3,545.9z M107.7,545.9c0-7.7-6.2-13.8-13.9-13.8
		c-7.7,0-13.9,6.2-13.9,13.8c0,7.7,6.2,13.8,13.9,13.8C101.5,559.7,107.7,553.5,107.7,545.9z M56.1,545.9c0-7.7-6.2-13.8-13.8-13.8
		c-7.7,0-13.9,6.2-13.9,13.8c0,7.7,6.2,13.8,13.9,13.8C49.9,559.7,56.1,553.5,56.1,545.9z"/>
</g>
<path class="st1" d="M510.7,255.3v261H0v-261H510.7z M487.6,459.4V323.5c0-14.3-11.6-25.9-25.9-25.9h-89.7
	c-14.3,0-25.9,11.6-25.9,25.9v135.8c0,14.3,11.6,25.9,25.9,25.9h89.7C475.9,485.2,487.6,473.6,487.6,459.4z M326.1,459.4V323.5
	c0-14.3-11.6-25.9-25.9-25.9h-89.7c-14.3,0-25.9,11.6-25.9,25.9v135.8c0,14.3,11.6,25.9,25.9,25.9h89.7
	C314.5,485.2,326.1,473.6,326.1,459.4z M164.6,459.4V323.5c0-14.3-11.6-25.9-25.9-25.9H49c-14.3,0-25.9,11.6-25.9,25.9v135.8
	c0,14.3,11.6,25.9,25.9,25.9h89.7C153,485.2,164.6,473.6,164.6,459.4z"/>
<g>
	<path class="st4" d="M242.3,591.5v42.4H28.5v-42.4H242.3z M230.4,621.9v-18.5H40.5v18.5H230.4z"/>
	<path class="st5" d="M510.7,575.4V650H0v-74.6H510.7z M242.3,633.9v-42.4H28.5v42.4H242.3z"/>
	<rect x="40.5" y="603.4" class="st2" width="189.9" height="18.5"/>
</g>
<path class="st6" d="M487.6,323.5v135.8c0,14.3-11.6,25.9-25.9,25.9h-89.7c-14.3,0-25.9-11.6-25.9-25.9V323.5
	c0-14.3,11.6-25.9,25.9-25.9h89.7C475.9,297.6,487.6,309.3,487.6,323.5z M478.9,459.4V323.5c0-9.5-7.8-17.3-17.3-17.3h-89.7
	c-9.5,0-17.3,7.8-17.3,17.3v135.8c0,9.5,7.8,17.3,17.3,17.3h89.7C471.2,476.6,478.9,468.9,478.9,459.4z"/>
<path class="st5" d="M478.9,323.5v135.8c0,9.5-7.8,17.3-17.3,17.3h-89.7c-9.5,0-17.3-7.8-17.3-17.3V323.5c0-9.5,7.8-17.3,17.3-17.3
	h89.7C471.2,306.3,478.9,314,478.9,323.5z M470.3,459.4V323.5c0-4.8-3.9-8.6-8.6-8.6h-89.7c-4.8,0-8.6,3.9-8.6,8.6v135.8
	c0,4.8,3.9,8.6,8.6,8.6h89.7C466.4,468,470.3,464.1,470.3,459.4z"/>
<path class="st6" d="M326.1,323.5v135.8c0,14.3-11.6,25.9-25.9,25.9h-89.7c-14.3,0-25.9-11.6-25.9-25.9V323.5
	c0-14.3,11.6-25.9,25.9-25.9h89.7C314.5,297.6,326.1,309.3,326.1,323.5z M317.5,459.4V323.5c0-9.5-7.8-17.3-17.2-17.3h-89.7
	c-9.5,0-17.3,7.8-17.3,17.3v135.8c0,9.5,7.8,17.3,17.3,17.3h89.7C309.7,476.6,317.5,468.9,317.5,459.4z"/>
<path class="st5" d="M317.5,323.5v135.8c0,9.5-7.8,17.3-17.2,17.3h-89.7c-9.5,0-17.3-7.8-17.3-17.3V323.5c0-9.5,7.8-17.3,17.3-17.3
	h89.7C309.7,306.3,317.5,314,317.5,323.5z M308.8,459.4V323.5c0-4.8-3.9-8.6-8.6-8.6h-89.7c-4.8,0-8.6,3.9-8.6,8.6v135.8
	c0,4.8,3.9,8.6,8.6,8.6h89.7C305,468,308.8,464.1,308.8,459.4z"/>
<path class="st6" d="M164.6,323.5v135.8c0,14.3-11.6,25.9-25.9,25.9H49c-14.3,0-25.9-11.6-25.9-25.9V323.5
	c0-14.3,11.6-25.9,25.9-25.9h89.7C153,297.6,164.6,309.3,164.6,323.5z M156,459.4V323.5c0-9.5-7.8-17.3-17.2-17.3H49
	c-9.5,0-17.3,7.8-17.3,17.3v135.8c0,9.5,7.8,17.3,17.3,17.3h89.7C148.2,476.6,156,468.9,156,459.4z"/>
<path class="st5" d="M156,323.5v135.8c0,9.5-7.8,17.3-17.2,17.3H49c-9.5,0-17.3-7.8-17.3-17.3V323.5c0-9.5,7.8-17.3,17.3-17.3h89.7
	C148.2,306.3,156,314,156,323.5z M147.4,459.4V323.5c0-4.8-3.9-8.6-8.6-8.6H49c-4.8,0-8.6,3.9-8.6,8.6v135.8c0,4.8,3.9,8.6,8.6,8.6
	h89.7C143.5,468,147.4,464.1,147.4,459.4z"/>
</svg>
