<?xml version="1.0" encoding="utf-8"?>
<!-- Generator: Adobe Illustrator 19.0.0, SVG Export Plug-In . SVG Version: 6.00 Build 0)  -->
<svg version="1.1" id="Layer_1" xmlns="http://www.w3.org/2000/svg" xmlns:xlink="http://www.w3.org/1999/xlink" x="0px" y="0px"
	 viewBox="0 0 466.2 380.4" style="enable-background:new 0 0 466.2 380.4;" xml:space="preserve">
<style type="text/css">
	.st0{fill:url(#SVGID_1_);}
	.st1{fill:url(#SVGID_2_);}
	.st2{fill:url(#SVGID_3_);}
	.st3{fill:url(#SVGID_4_);}
	.st4{fill:url(#SVGID_5_);}
	.st5{fill:url(#SVGID_6_);}
	.st6{fill:url(#SVGID_7_);}
	.st7{fill:url(#SVGID_8_);}
	.st8{fill:url(#SVGID_9_);}
	.st9{fill:url(#SVGID_10_);}
	.st10{fill:#745D30;}
	.st11{fill:url(#SVGID_11_);}
	.st12{fill:url(#SVGID_12_);}
	.st13{fill:#525A63;}
	.st14{fill:url(#SVGID_13_);}
	.st15{fill:url(#SVGID_14_);}
	.st16{fill:url(#SVGID_15_);}
	.st17{fill:url(#SVGID_16_);}
	.st18{fill:url(#SVGID_17_);}
	.st19{fill:url(#SVGID_18_);}
	.st20{fill:url(#SVGID_19_);}
	.st21{fill:url(#SVGID_20_);}
	.st22{fill:#FFDD00;}
	.st23{fill:url(#SVGID_21_);}
	.st24{fill:url(#SVGID_22_);}
	.st25{fill:url(#SVGID_23_);}
	.st26{fill:url(#SVGID_24_);}
	.st27{fill:url(#SVGID_25_);}
	.st28{fill:url(#SVGID_26_);}
	.st29{fill:url(#SVGID_27_);}
	.st30{fill:url(#SVGID_28_);}
	.st31{fill:url(#SVGID_29_);}
	.st32{fill:url(#SVGID_30_);}
	.st33{fill:url(#SVGID_31_);}
	.st34{fill:url(#SVGID_32_);}
	.st35{fill:url(#SVGID_33_);}
</style>
<g>
	<rect x="27.3" y="125.5" width="411.6" height="227"/>
	<path d="M157.7,126.1c-42.3,0.3-84.5,1-126.8,1.9C25.6,202,25.6,276,31,350c42.3,0.9,84.5,1.6,126.8,1.9
		C155.7,276.6,155.7,201.4,157.7,126.1z"/>
	<path d="M296.5,126.1c-42.3-0.3-84.5-0.3-126.8,0c-1.7,75.3-1.7,150.6,0,225.9c42.3,0.3,84.5,0.3,126.8,0
		C298.2,276.7,298.2,201.4,296.5,126.1z"/>
	<path d="M435.2,128.1c-42.3-0.9-84.5-1.6-126.8-1.9c2,75.2,2,150.5,0,225.7c42.3-0.3,84.5-1,126.8-1.9
		C440.6,276,440.6,202,435.2,128.1z"/>
	<linearGradient id="SVGID_1_" gradientUnits="userSpaceOnUse" x1="92.3104" y1="348.5816" x2="92.3104" y2="129.4502">
		<stop  offset="0" style="stop-color:#3B3B3E"/>
		<stop  offset="0.22" style="stop-color:#A0A3A7"/>
		<stop  offset="0.36" style="stop-color:#85888C"/>
		<stop  offset="0.3604" style="stop-color:#85888C"/>
		<stop  offset="0.414" style="stop-color:#A6A9AD"/>
		<stop  offset="0.4681" style="stop-color:#C4C6C9"/>
		<stop  offset="0.5234" style="stop-color:#DBDDDF"/>
		<stop  offset="0.5794" style="stop-color:#EDEEEF"/>
		<stop  offset="0.6366" style="stop-color:#F9F9FA"/>
		<stop  offset="0.697" style="stop-color:#FFFFFF"/>
		<stop  offset="0.7229" style="stop-color:#F8F8F9"/>
		<stop  offset="0.7516" style="stop-color:#EBECED"/>
		<stop  offset="0.7817" style="stop-color:#D7D8DB"/>
		<stop  offset="0.8124" style="stop-color:#BCBEC1"/>
		<stop  offset="0.83" style="stop-color:#AAACB0"/>
		<stop  offset="1" style="stop-color:#3B3B3E"/>
	</linearGradient>
	<path class="st0" d="M155.8,129.5c-41.1,0.3-82.1,0.9-123.2,1.8c-5,71.8-5,143.7,0,215.5c41.1,0.9,82.1,1.5,123.2,1.8
		C153.9,275.5,153.9,202.5,155.8,129.5z"/>
	<linearGradient id="SVGID_2_" gradientUnits="userSpaceOnUse" x1="233.0862" y1="348.896" x2="233.0862" y2="129.136">
		<stop  offset="0" style="stop-color:#3B3B3E"/>
		<stop  offset="0.22" style="stop-color:#A0A3A7"/>
		<stop  offset="0.36" style="stop-color:#85888C"/>
		<stop  offset="0.3604" style="stop-color:#85888C"/>
		<stop  offset="0.414" style="stop-color:#A6A9AD"/>
		<stop  offset="0.4681" style="stop-color:#C4C6C9"/>
		<stop  offset="0.5234" style="stop-color:#DBDDDF"/>
		<stop  offset="0.5794" style="stop-color:#EDEEEF"/>
		<stop  offset="0.6366" style="stop-color:#F9F9FA"/>
		<stop  offset="0.697" style="stop-color:#FFFFFF"/>
		<stop  offset="0.7229" style="stop-color:#F8F8F9"/>
		<stop  offset="0.7516" style="stop-color:#EBECED"/>
		<stop  offset="0.7817" style="stop-color:#D7D8DB"/>
		<stop  offset="0.8124" style="stop-color:#BCBEC1"/>
		<stop  offset="0.83" style="stop-color:#AAACB0"/>
		<stop  offset="1" style="stop-color:#3B3B3E"/>
	</linearGradient>
	<path class="st1" d="M294.7,129.3c-41.1-0.3-82.1-0.3-123.2,0c-1.5,73.1-1.5,146.2,0,219.4c41.1,0.3,82.1,0.3,123.2,0
		C296.2,275.6,296.2,202.5,294.7,129.3z"/>
	<linearGradient id="SVGID_3_" gradientUnits="userSpaceOnUse" x1="373.863" y1="348.5816" x2="373.863" y2="129.4502">
		<stop  offset="0" style="stop-color:#3B3B3E"/>
		<stop  offset="0.22" style="stop-color:#A0A3A7"/>
		<stop  offset="0.36" style="stop-color:#85888C"/>
		<stop  offset="0.3604" style="stop-color:#85888C"/>
		<stop  offset="0.414" style="stop-color:#A6A9AD"/>
		<stop  offset="0.4681" style="stop-color:#C4C6C9"/>
		<stop  offset="0.5234" style="stop-color:#DBDDDF"/>
		<stop  offset="0.5794" style="stop-color:#EDEEEF"/>
		<stop  offset="0.6366" style="stop-color:#F9F9FA"/>
		<stop  offset="0.697" style="stop-color:#FFFFFF"/>
		<stop  offset="0.7229" style="stop-color:#F8F8F9"/>
		<stop  offset="0.7516" style="stop-color:#EBECED"/>
		<stop  offset="0.7817" style="stop-color:#D7D8DB"/>
		<stop  offset="0.8124" style="stop-color:#BCBEC1"/>
		<stop  offset="0.83" style="stop-color:#AAACB0"/>
		<stop  offset="1" style="stop-color:#3B3B3E"/>
	</linearGradient>
	<path class="st2" d="M433.6,131.3c-41.1-0.9-82.1-1.5-123.2-1.8c1.9,73,1.9,146.1,0,219.1c41.1-0.3,82.1-0.9,123.2-1.8
		C438.6,274.9,438.6,203.1,433.6,131.3z"/>
	<path d="M120,107.4c0,0,4.6,0.5,7.4,0.2c3.4-0.4,3.6-3.5,3.6-3.5s1,1.9-0.1,3.2C127.9,110.7,120,107.4,120,107.4z"/>
	<linearGradient id="SVGID_4_" gradientUnits="userSpaceOnUse" x1="97.5068" y1="373.1177" x2="97.5068" y2="116.5739">
		<stop  offset="0" style="stop-color:#3B3B3E"/>
		<stop  offset="0.22" style="stop-color:#C3C6C8"/>
		<stop  offset="0.36" style="stop-color:#C3C6C8"/>
		<stop  offset="0.3624" style="stop-color:#C4C6C9"/>
		<stop  offset="0.4428" style="stop-color:#DCDDDF"/>
		<stop  offset="0.5248" style="stop-color:#EDEEEF"/>
		<stop  offset="0.6086" style="stop-color:#F9F9FA"/>
		<stop  offset="0.697" style="stop-color:#FFFFFF"/>
		<stop  offset="0.7435" style="stop-color:#F8F8F9"/>
		<stop  offset="0.7949" style="stop-color:#EBECED"/>
		<stop  offset="0.8485" style="stop-color:#D7D8DB"/>
		<stop  offset="0.8606" style="stop-color:#D1D3D6"/>
		<stop  offset="1" style="stop-color:#595B5F"/>
	</linearGradient>
	<path class="st3" d="M89.8,122c-1.2-1.8,1.3-5,5.6-7.1c4.2-2.2,8.6-2.5,9.8-0.7c1.2,1.8-1.3,5-5.6,7.1
		C95.4,123.5,91,123.8,89.8,122z"/>
	<path d="M221.2,116.7c-1.1,0.9-2.3,1.6-3.6,2.1c-9.2,4.1-21.2-2.6-21.7-2.9l-3.2-1.7l3.5-1.1c0,0,2.2-0.8,5.8-3.4
		c2.1-1.6,4.3-3.5,6.4-5.8c0.6-0.7,1.3-1.3,2-1.8c6.6-4.9,14.9-2.6,18.4-0.6l1.1,0.6l-0.3,1.1c-0.1,0.3-1.7,8.5-8.1,13.2
		C221.5,116.5,221.2,116.7,221.2,116.7z"/>
	<linearGradient id="SVGID_5_" gradientUnits="userSpaceOnUse" x1="212.3319" y1="366.399" x2="212.3319" y2="115.2662">
		<stop  offset="0" style="stop-color:#005B27"/>
		<stop  offset="0.22" style="stop-color:#36845B"/>
		<stop  offset="0.36" style="stop-color:#007446"/>
		<stop  offset="0.3871" style="stop-color:#007D49"/>
		<stop  offset="0.4464" style="stop-color:#008C4C"/>
		<stop  offset="0.5069" style="stop-color:#00974E"/>
		<stop  offset="0.5682" style="stop-color:#009E4F"/>
		<stop  offset="0.6309" style="stop-color:#00A350"/>
		<stop  offset="0.697" style="stop-color:#00A651"/>
		<stop  offset="0.7209" style="stop-color:#00A350"/>
		<stop  offset="0.7474" style="stop-color:#009E50"/>
		<stop  offset="0.7751" style="stop-color:#009651"/>
		<stop  offset="0.8035" style="stop-color:#008A51"/>
		<stop  offset="0.83" style="stop-color:#1C7A4F"/>
		<stop  offset="1" style="stop-color:#005B27"/>
	</linearGradient>
	<path class="st4" d="M227.9,102.8c0,0-10.5-5.9-18.1,2.1c-7.6,8-13,9.7-13,9.7s11,5.9,19.5,2.1
		C224.7,112.9,227.9,102.8,227.9,102.8z"/>
	<linearGradient id="SVGID_6_" gradientUnits="userSpaceOnUse" x1="212.3319" y1="366.4126" x2="212.3319" y2="115.2684">
		<stop  offset="0" style="stop-color:#005B27"/>
		<stop  offset="0.22" style="stop-color:#36845B"/>
		<stop  offset="0.36" style="stop-color:#007446"/>
		<stop  offset="0.3871" style="stop-color:#007D49"/>
		<stop  offset="0.4464" style="stop-color:#008C4C"/>
		<stop  offset="0.5069" style="stop-color:#00974E"/>
		<stop  offset="0.5682" style="stop-color:#009E4F"/>
		<stop  offset="0.6309" style="stop-color:#00A350"/>
		<stop  offset="0.697" style="stop-color:#00A651"/>
		<stop  offset="0.7209" style="stop-color:#00A350"/>
		<stop  offset="0.7474" style="stop-color:#009E50"/>
		<stop  offset="0.7751" style="stop-color:#009651"/>
		<stop  offset="0.8035" style="stop-color:#008A51"/>
		<stop  offset="0.83" style="stop-color:#1C7A4F"/>
		<stop  offset="1" style="stop-color:#005B27"/>
	</linearGradient>
	<path class="st5" d="M209.8,104.9c-7.6,8-13,9.7-13,9.7s14.1,1.1,19.7-6.5c3.8-5.1,11.4-5.3,11.4-5.3S217.3,97,209.8,104.9z"/>
	<path d="M244.9,116.7c1.1,0.9,2.3,1.6,3.6,2.1c9.2,4.1,21.2-2.6,21.7-2.9l3.2-1.7l-3.5-1.1c0,0-2.2-0.8-5.8-3.4
		c-2.1-1.6-4.3-3.5-6.4-5.8c-0.6-0.7-1.3-1.3-2-1.8c-6.6-4.9-14.9-2.6-18.4-0.6l-1.1,0.6l0.3,1.1c0.1,0.3,1.7,8.5,8.1,13.2
		C244.6,116.5,244.9,116.7,244.9,116.7z"/>
	<linearGradient id="SVGID_7_" gradientUnits="userSpaceOnUse" x1="253.7775" y1="366.399" x2="253.7775" y2="115.2662">
		<stop  offset="0" style="stop-color:#005B27"/>
		<stop  offset="0.22" style="stop-color:#36845B"/>
		<stop  offset="0.36" style="stop-color:#007446"/>
		<stop  offset="0.3871" style="stop-color:#007D49"/>
		<stop  offset="0.4464" style="stop-color:#008C4C"/>
		<stop  offset="0.5069" style="stop-color:#00974E"/>
		<stop  offset="0.5682" style="stop-color:#009E4F"/>
		<stop  offset="0.6309" style="stop-color:#00A350"/>
		<stop  offset="0.697" style="stop-color:#00A651"/>
		<stop  offset="0.7209" style="stop-color:#00A350"/>
		<stop  offset="0.7474" style="stop-color:#009E50"/>
		<stop  offset="0.7751" style="stop-color:#009651"/>
		<stop  offset="0.8035" style="stop-color:#008A51"/>
		<stop  offset="0.83" style="stop-color:#1C7A4F"/>
		<stop  offset="1" style="stop-color:#005B27"/>
	</linearGradient>
	<path class="st6" d="M238.3,102.8c0,0,10.5-5.9,18.1,2.1c7.6,8,13,9.7,13,9.7s-11,5.9-19.5,2.1
		C241.4,112.9,238.3,102.8,238.3,102.8z"/>
	<linearGradient id="SVGID_8_" gradientUnits="userSpaceOnUse" x1="253.7775" y1="366.4126" x2="253.7775" y2="115.2684">
		<stop  offset="0" style="stop-color:#005B27"/>
		<stop  offset="0.22" style="stop-color:#36845B"/>
		<stop  offset="0.36" style="stop-color:#007446"/>
		<stop  offset="0.3871" style="stop-color:#007D49"/>
		<stop  offset="0.4464" style="stop-color:#008C4C"/>
		<stop  offset="0.5069" style="stop-color:#00974E"/>
		<stop  offset="0.5682" style="stop-color:#009E4F"/>
		<stop  offset="0.6309" style="stop-color:#00A350"/>
		<stop  offset="0.697" style="stop-color:#00A651"/>
		<stop  offset="0.7209" style="stop-color:#00A350"/>
		<stop  offset="0.7474" style="stop-color:#009E50"/>
		<stop  offset="0.7751" style="stop-color:#009651"/>
		<stop  offset="0.8035" style="stop-color:#008A51"/>
		<stop  offset="0.83" style="stop-color:#1C7A4F"/>
		<stop  offset="1" style="stop-color:#005B27"/>
	</linearGradient>
	<path class="st7" d="M256.3,104.9c7.6,8,13,9.7,13,9.7s-14.1,1.1-19.7-6.5c-3.8-5.1-11.4-5.3-11.4-5.3S248.8,97,256.3,104.9z"/>
	<linearGradient id="SVGID_9_" gradientUnits="userSpaceOnUse" x1="393.3563" y1="579.8853" x2="393.3563" y2="327.5534">
		<stop  offset="0" style="stop-color:#1D0000"/>
		<stop  offset="0.22" style="stop-color:#B82E42"/>
		<stop  offset="0.36" style="stop-color:#B10836"/>
		<stop  offset="0.3945" style="stop-color:#BD0D36"/>
		<stop  offset="0.4671" style="stop-color:#D11535"/>
		<stop  offset="0.5413" style="stop-color:#DF1832"/>
		<stop  offset="0.6171" style="stop-color:#E81A30"/>
		<stop  offset="0.697" style="stop-color:#ED1B30"/>
		<stop  offset="0.7256" style="stop-color:#E81A30"/>
		<stop  offset="0.7573" style="stop-color:#DD1832"/>
		<stop  offset="0.7905" style="stop-color:#CC1335"/>
		<stop  offset="0.8244" style="stop-color:#B50A36"/>
		<stop  offset="0.83" style="stop-color:#B10836"/>
		<stop  offset="1" style="stop-color:#1D0000"/>
	</linearGradient>
	<path class="st8" d="M384.1,369c-2.5-5.3-0.4-11.4,4.7-13.5c5.1-2.1,11.3,0.5,13.8,5.9c2.5,5.3,0.4,11.4-4.7,13.5
		C392.8,377,386.6,374.4,384.1,369z"/>
	<linearGradient id="SVGID_10_" gradientUnits="userSpaceOnUse" x1="390.2732" y1="583.7408" x2="390.2732" y2="327.1934">
		<stop  offset="0" style="stop-color:#3B3B3E"/>
		<stop  offset="0.22" style="stop-color:#C3C6C8"/>
		<stop  offset="0.36" style="stop-color:#C3C6C8"/>
		<stop  offset="0.3624" style="stop-color:#C4C6C9"/>
		<stop  offset="0.4428" style="stop-color:#DCDDDF"/>
		<stop  offset="0.5248" style="stop-color:#EDEEEF"/>
		<stop  offset="0.6086" style="stop-color:#F9F9FA"/>
		<stop  offset="0.697" style="stop-color:#FFFFFF"/>
		<stop  offset="0.7435" style="stop-color:#F8F8F9"/>
		<stop  offset="0.7949" style="stop-color:#EBECED"/>
		<stop  offset="0.8485" style="stop-color:#D7D8DB"/>
		<stop  offset="0.8606" style="stop-color:#D1D3D6"/>
		<stop  offset="1" style="stop-color:#595B5F"/>
	</linearGradient>
	<path class="st9" d="M384.1,362.6c-0.9-1.4,1.1-4,4.5-5.7c3.4-1.7,6.9-2,7.9-0.5c0.9,1.4-1.1,4-4.5,5.7
		C388.6,363.8,385,364,384.1,362.6z"/>
	<path d="M366.8,358.2c0.6,1.5,0.9,3.1,0.9,4.8c0,6.9-5.6,12.9-13.9,16c9.1-2.3,15.5-7.7,15.5-14.1
		C369.2,362.5,368.4,360.2,366.8,358.2z"/>
	<path d="M423.9,350.7c0.7,1.9,1.1,3.9,1.1,6c0,8.7-6.4,16.2-15.9,20c10.3-2.8,17.7-9.7,17.7-17.7
		C426.7,356.1,425.7,353.3,423.9,350.7z"/>
	<path class="st10" d="M382,123.5c0.2,0.4,0.3,0.7,0.3,1.2c0,1.6-1.4,2.8-3.2,2.8c-0.5,0-0.9-0.1-1.3-0.2c0.5,0.7,1.5,1.2,2.6,1.2
		c1.7,0,3.1-1.2,3.1-2.7C383.4,124.8,382.9,124,382,123.5z"/>
	<linearGradient id="SVGID_11_" gradientUnits="userSpaceOnUse" x1="353.4051" y1="372.1714" x2="353.4051" y2="115.6116">
		<stop  offset="0" style="stop-color:#3B3B3E"/>
		<stop  offset="0.22" style="stop-color:#C3C6C8"/>
		<stop  offset="0.36" style="stop-color:#C3C6C8"/>
		<stop  offset="0.3624" style="stop-color:#C4C6C9"/>
		<stop  offset="0.4428" style="stop-color:#DCDDDF"/>
		<stop  offset="0.5248" style="stop-color:#EDEEEF"/>
		<stop  offset="0.6086" style="stop-color:#F9F9FA"/>
		<stop  offset="0.697" style="stop-color:#FFFFFF"/>
		<stop  offset="0.7435" style="stop-color:#F8F8F9"/>
		<stop  offset="0.7949" style="stop-color:#EBECED"/>
		<stop  offset="0.8485" style="stop-color:#D7D8DB"/>
		<stop  offset="0.8606" style="stop-color:#D1D3D6"/>
		<stop  offset="1" style="stop-color:#595B5F"/>
	</linearGradient>
	<path class="st11" d="M345.7,120.9c-1.2-1.8,1.3-5,5.6-7.1c4.2-2.2,8.6-2.5,9.8-0.7c1.2,1.8-1.3,5-5.6,7.1
		C351.3,122.4,346.9,122.7,345.7,120.9z"/>
	<path d="M18.6,124.1c-3.3,76.6-3.3,153.2,0,229.8c143,2.4,286,2.4,429,0c3.3-76.6,3.3-153.2,0-229.8
		C304.6,121.7,161.6,121.7,18.6,124.1z M435.3,347.4c-134.8,2-269.6,2-404.4,0c-2.7-72.3-2.7-144.5,0-216.8c134.8-2,269.6-2,404.4,0
		C438,202.9,438,275.1,435.3,347.4z"/>
	<linearGradient id="SVGID_12_" gradientUnits="userSpaceOnUse" x1="87.1356" y1="127.4258" x2="87.1356" y2="109.8349">
		<stop  offset="0" style="stop-color:#000000"/>
		<stop  offset="1" style="stop-color:#3C434C"/>
	</linearGradient>
	<path class="st12" d="M156.1,109.8c-46,0.3-92,0.9-137.9,1.8c-0.6,0-1.2,0.3-1.6,0.6c0.1,0.2,0.2,0.4,0.4,0.6
		c4,4.9,8.1,9.7,12.1,14.6c42.6-0.7,85.3-1.1,127.9-1.4c0.2-5.2,0.4-10.4,0.6-15.7C157.3,110.1,156.7,109.8,156.1,109.8z"/>
	<path class="st13" d="M162.9,111c-0.1-0.2-0.2-0.4-0.3-0.7c-0.6,0.4-0.9,1.1-0.9,1.9c-0.6,42.3-1,84.6-1,126.8
		c0,42.3,0.3,84.6,1,126.8c0,0.8,0.4,1.4,0.9,1.9c0.1-0.2,0.2-0.4,0.3-0.7c2.1-5,4.1-10,6.2-15c-0.9-75.3-0.9-150.7,0-226
		C167,121,165,116,162.9,111z"/>
	<path class="st13" d="M303.5,110.3c-0.1,0.2-0.2,0.4-0.3,0.7c-2.1,5-4.1,10-6.2,15c0.9,75.3,0.9,150.7,0,226c2.1,5,4.1,10,6.2,15
		c0.1,0.2,0.2,0.4,0.3,0.7c0.5-0.4,0.9-1.1,0.9-1.9c0.6-42.3,1-84.6,1-126.8c0-42.3-0.3-84.6-1-126.8
		C304.4,111.4,304.1,110.8,303.5,110.3z"/>
	<path class="st13" d="M308.5,110.4c-0.5,0.4-0.8,1.1-0.8,1.8c1.3,84.5,1.3,169.1,0,253.6c0,0.8,0.4,1.5,1,1.9
		c0.2-5.3,0.3-10.5,0.5-15.8c1.1-75.3,1.1-150.6,0-225.9C308.9,120.8,308.7,115.6,308.5,110.4z"/>
	<path class="st13" d="M449.6,112.2c-0.1,0.2-0.2,0.4-0.4,0.6c-4,4.9-8.1,9.7-12.1,14.6c2.9,74.4,2.9,148.8,0,223.2
		c4.1,4.9,8.1,9.8,12.2,14.6c0.1,0.2,0.3,0.4,0.4,0.5c0.5-0.4,0.8-1.1,0.9-1.7c3.9-83.4,3.9-166.7,0-250.1
		C450.4,113.3,450.1,112.7,449.6,112.2z"/>
	<path class="st13" d="M29.1,127.4c-4.1-4.9-8.1-9.8-12.1-14.6c-0.1-0.2-0.2-0.4-0.4-0.6c-0.5,0.4-0.8,1.1-0.9,1.8
		c-3.9,83.4-3.9,166.7,0,250.1c0,0.7,0.4,1.3,0.9,1.7c0.1-0.2,0.3-0.4,0.4-0.5c4-4.9,8.1-9.7,12.2-14.6
		C26.2,276.2,26.2,201.8,29.1,127.4z"/>
	<path class="st13" d="M157.7,110.4c-0.2,5.2-0.4,10.4-0.6,15.7c-1.1,75.3-1.1,150.6,0,225.9c0.1,5.3,0.3,10.5,0.5,15.8
		c0.6-0.4,1-1.1,1-1.9c-1.4-84.5-1.4-169.1,0-253.6C158.5,111.5,158.2,110.8,157.7,110.4z"/>
	<linearGradient id="SVGID_13_" gradientUnits="userSpaceOnUse" x1="87.0513" y1="368.1989" x2="87.0513" y2="350.6197">
		<stop  offset="0" style="stop-color:#A7ACB3"/>
		<stop  offset="1" style="stop-color:#505861"/>
	</linearGradient>
	<path class="st14" d="M157,352c-42.6-0.2-85.3-0.7-127.9-1.4c-4.1,4.9-8.1,9.8-12.2,14.6c-0.1,0.2-0.3,0.4-0.4,0.5
		c0.4,0.4,1,0.6,1.6,0.7c46,0.9,92,1.4,137.9,1.8c0.5,0,1-0.2,1.4-0.4C157.3,362.5,157.2,357.2,157,352z"/>
	<linearGradient id="SVGID_14_" gradientUnits="userSpaceOnUse" x1="233.0897" y1="125.9942" x2="233.0897" y2="109.5772">
		<stop  offset="0" style="stop-color:#000000"/>
		<stop  offset="1" style="stop-color:#3C434C"/>
	</linearGradient>
	<path class="st15" d="M302.1,109.8c-23-0.1-46-0.2-69-0.2c-23,0-46,0.1-69,0.2c-0.6,0-1.1,0.2-1.5,0.5c0.1,0.2,0.2,0.4,0.3,0.7
		c2.1,5,4.1,10,6.2,15c42.6-0.2,85.3-0.2,127.9,0c2.1-5,4.1-10,6.2-15c0.1-0.2,0.2-0.4,0.3-0.7C303.1,110,302.6,109.8,302.1,109.8z"
		/>
	<linearGradient id="SVGID_15_" gradientUnits="userSpaceOnUse" x1="233.0921" y1="368.4566" x2="233.0921" y2="352.0386">
		<stop  offset="0" style="stop-color:#A7ACB3"/>
		<stop  offset="1" style="stop-color:#505861"/>
	</linearGradient>
	<path class="st16" d="M303.3,367c-2.1-5-4.1-10-6.2-15c-42.6,0.2-85.3,0.2-127.9,0c-2.1,5-4.1,10-6.2,15c-0.1,0.2-0.2,0.4-0.3,0.7
		c0.4,0.3,0.9,0.5,1.5,0.5c23,0.1,46,0.2,69,0.2c23,0,46-0.1,69-0.2c0.6,0,1.1-0.2,1.5-0.5C303.4,367.5,303.3,367.3,303.3,367z"/>
	<linearGradient id="SVGID_16_" gradientUnits="userSpaceOnUse" x1="379.0367" y1="127.4131" x2="379.0367" y2="109.8349">
		<stop  offset="0" style="stop-color:#000000"/>
		<stop  offset="1" style="stop-color:#3C434C"/>
	</linearGradient>
	<path class="st17" d="M448,111.6c-46-0.9-92-1.4-137.9-1.8c-0.6,0-1.1,0.2-1.5,0.6c0.2,5.2,0.4,10.4,0.6,15.7
		c42.6,0.2,85.3,0.7,127.9,1.4c4.1-4.9,8.1-9.8,12.2-14.6c0.1-0.2,0.2-0.4,0.4-0.6C449.1,111.8,448.6,111.6,448,111.6z"/>
	<linearGradient id="SVGID_17_" gradientUnits="userSpaceOnUse" x1="379.1217" y1="368.1988" x2="379.1217" y2="350.6197">
		<stop  offset="0" style="stop-color:#A7ACB3"/>
		<stop  offset="1" style="stop-color:#505861"/>
	</linearGradient>
	<path class="st18" d="M449.2,365.2c-4-4.9-8.1-9.7-12.2-14.6c-42.6,0.7-85.3,1.1-127.9,1.4c-0.1,5.3-0.3,10.5-0.5,15.8
		c0.4,0.3,0.9,0.4,1.4,0.4c46-0.3,92-0.9,137.9-1.8c0.6,0,1.2-0.3,1.6-0.7C449.5,365.6,449.3,365.4,449.2,365.2z"/>
	<linearGradient id="SVGID_18_" gradientUnits="userSpaceOnUse" x1="233.0856" y1="380.4417" x2="233.0856" y2="97.5911">
		<stop  offset="0" style="stop-color:#232931"/>
		<stop  offset="1" style="stop-color:#A7ACB3"/>
	</linearGradient>
	<path class="st19" d="M3.9,100.1c-5.2,92.6-5.2,185.2,0,277.8c152.8,3.4,305.6,3.4,458.4,0c5.2-92.6,5.2-185.2,0-277.8
		C309.5,96.8,156.7,96.8,3.9,100.1z M454.2,371.5c-147.5,3-295.1,3-442.6,0c-4.5-88.3-4.5-176.5,0-264.8c147.5-3,295.1-3,442.6,0
		C458.7,195,458.7,283.3,454.2,371.5z"/>
	<linearGradient id="SVGID_19_" gradientUnits="userSpaceOnUse" x1="233.086" y1="400.9048" x2="233.086" y2="79.47">
		<stop  offset="0" style="stop-color:#3B3B3E"/>
		<stop  offset="0.2545" style="stop-color:#A0A3A7"/>
		<stop  offset="0.36" style="stop-color:#85888C"/>
		<stop  offset="0.3604" style="stop-color:#85888C"/>
		<stop  offset="0.414" style="stop-color:#A6A9AD"/>
		<stop  offset="0.4681" style="stop-color:#C4C6C9"/>
		<stop  offset="0.5234" style="stop-color:#DBDDDF"/>
		<stop  offset="0.5794" style="stop-color:#EDEEEF"/>
		<stop  offset="0.6366" style="stop-color:#F9F9FA"/>
		<stop  offset="0.697" style="stop-color:#FFFFFF"/>
		<stop  offset="0.7336" style="stop-color:#F8F8F9"/>
		<stop  offset="0.7741" style="stop-color:#EBECED"/>
		<stop  offset="0.8166" style="stop-color:#D7D8DB"/>
		<stop  offset="0.86" style="stop-color:#BCBEC1"/>
		<stop  offset="0.8848" style="stop-color:#AAACB0"/>
		<stop  offset="1" style="stop-color:#3B3B3E"/>
	</linearGradient>
	<path class="st20" d="M4.8,101.1c-5.1,91.9-5.1,183.8,0,275.7c152.2,3.3,304.4,3.3,456.6,0c5.1-91.9,5.1-183.8,0-275.7
		C309.2,97.8,157,97.8,4.8,101.1z M158.5,365.8c0,0.8-0.4,1.5-1,1.9c-0.4,0.3-0.9,0.4-1.4,0.4c-46-0.3-92-0.9-137.9-1.8
		c-0.6,0-1.2-0.3-1.6-0.7c-0.5-0.4-0.8-1.1-0.9-1.7c-3.9-83.4-3.9-166.7,0-250.1c0-0.7,0.4-1.3,0.9-1.8c0.4-0.4,1-0.6,1.6-0.6
		c46-0.9,92-1.4,137.9-1.8c0.6,0,1.1,0.2,1.5,0.6c0.5,0.4,0.8,1.1,0.8,1.8C157.1,196.7,157.1,281.3,158.5,365.8z M304.4,365.8
		c0,0.8-0.4,1.4-0.9,1.9c-0.4,0.3-0.9,0.5-1.5,0.5c-46,0.3-92,0.3-137.9,0c-0.6,0-1.1-0.2-1.5-0.5c-0.6-0.4-0.9-1.1-0.9-1.9
		c-1.3-84.6-1.3-169.1,0-253.7c0-0.8,0.4-1.4,0.9-1.9c0.4-0.3,0.9-0.5,1.5-0.5c46-0.3,92-0.3,137.9,0c0.6,0,1.1,0.2,1.5,0.5
		c0.5,0.4,0.9,1.1,0.9,1.9C305.7,196.7,305.7,281.3,304.4,365.8z M450.4,364c0,0.7-0.4,1.3-0.9,1.7c-0.4,0.4-1,0.6-1.6,0.7
		c-46,0.9-92,1.4-137.9,1.8c-0.5,0-1-0.2-1.4-0.4c-0.6-0.4-1-1.1-1-1.9c1.3-84.5,1.3-169.1,0-253.6c0-0.7,0.3-1.4,0.8-1.8
		c0.4-0.4,0.9-0.6,1.5-0.6c46,0.3,92,0.9,137.9,1.8c0.6,0,1.2,0.3,1.6,0.6c0.5,0.4,0.8,1.1,0.9,1.8
		C454.4,197.3,454.4,280.7,450.4,364z"/>
	<radialGradient id="SVGID_20_" cx="233.2435" cy="35.2095" r="32.9131" gradientUnits="userSpaceOnUse">
		<stop  offset="0" style="stop-color:#FFFFFF"/>
		<stop  offset="0.6121" style="stop-color:#ED1B30"/>
		<stop  offset="0.8667" style="stop-color:#940038"/>
		<stop  offset="1" style="stop-color:#1D0000"/>
	</radialGradient>
	<circle class="st21" cx="233.2" cy="35.2" r="30.1"/>
	<polygon class="st22" points="233.1,0 243.4,20.9 266.4,24.2 249.7,40.5 253.7,63.4 233.1,52.6 212.5,63.4 216.4,40.5 199.7,24.2 
		222.8,20.9 	"/>
	<radialGradient id="SVGID_21_" cx="233.065" cy="31.6992" r="32.5251" gradientUnits="userSpaceOnUse">
		<stop  offset="0" style="stop-color:#FFFFFF"/>
		<stop  offset="0.2986" style="stop-color:#FFFEF8"/>
		<stop  offset="0.6501" style="stop-color:#FFFBEC"/>
		<stop  offset="1" style="stop-color:#FFF7DA"/>
	</radialGradient>
	<polygon class="st23" points="233.1,0 234.7,32.8 266.4,24.2 235.8,35.9 253.7,63.4 233.1,37.9 212.5,63.4 230.4,35.9 199.7,24.2 
		231.4,32.8 	"/>
	<radialGradient id="SVGID_22_" cx="163.0643" cy="46.3374" r="19.6254" gradientUnits="userSpaceOnUse">
		<stop  offset="0" style="stop-color:#FFFFFF"/>
		<stop  offset="0.6121" style="stop-color:#ED1B30"/>
		<stop  offset="0.8667" style="stop-color:#940038"/>
		<stop  offset="1" style="stop-color:#1D0000"/>
	</radialGradient>
	<circle class="st24" cx="163.1" cy="46.3" r="18.1"/>
	<radialGradient id="SVGID_23_" cx="303.0645" cy="46.3374" r="19.6253" gradientUnits="userSpaceOnUse">
		<stop  offset="0" style="stop-color:#FFFFFF"/>
		<stop  offset="0.6121" style="stop-color:#ED1B30"/>
		<stop  offset="0.8667" style="stop-color:#940038"/>
		<stop  offset="1" style="stop-color:#1D0000"/>
	</radialGradient>
	<circle class="st25" cx="303.1" cy="46.3" r="18.1"/>
	<polygon class="st22" points="163.1,25.4 169.2,37.9 183.1,39.9 173.1,49.6 175.4,63.4 163.1,56.9 150.7,63.4 153.1,49.6 
		143.1,39.9 156.9,37.9 	"/>
	<radialGradient id="SVGID_24_" cx="163.065" cy="44.3789" r="19.5152" gradientUnits="userSpaceOnUse">
		<stop  offset="0" style="stop-color:#FFFFFF"/>
		<stop  offset="0.2986" style="stop-color:#FFFEF8"/>
		<stop  offset="0.6501" style="stop-color:#FFFBEC"/>
		<stop  offset="1" style="stop-color:#FFF7DA"/>
	</radialGradient>
	<polygon class="st26" points="163.1,25.4 164.1,45 183.1,39.9 164.7,46.9 175.4,63.4 163.1,48.1 150.7,63.4 161.4,46.9 143.1,39.9 
		162.1,45 	"/>
	<radialGradient id="SVGID_25_" cx="113.0643" cy="58.3558" r="11.9398" gradientUnits="userSpaceOnUse">
		<stop  offset="0" style="stop-color:#FFFFFF"/>
		<stop  offset="0.6121" style="stop-color:#ED1B30"/>
		<stop  offset="0.8667" style="stop-color:#940038"/>
		<stop  offset="1" style="stop-color:#1D0000"/>
	</radialGradient>
	<circle class="st27" cx="113.1" cy="58.4" r="10.8"/>
	<radialGradient id="SVGID_26_" cx="353.065" cy="58.3558" r="11.9397" gradientUnits="userSpaceOnUse">
		<stop  offset="0" style="stop-color:#FFFFFF"/>
		<stop  offset="0.6121" style="stop-color:#ED1B30"/>
		<stop  offset="0.8667" style="stop-color:#940038"/>
		<stop  offset="1" style="stop-color:#1D0000"/>
	</radialGradient>
	<circle class="st28" cx="353.1" cy="58.4" r="10.8"/>
	<polygon class="st22" points="113.1,45.6 116.8,53.1 125.1,54.3 119.1,60.1 120.5,68.4 113.1,64.5 105.6,68.4 107.1,60.1 
		101.1,54.3 109.4,53.1 	"/>
	<radialGradient id="SVGID_27_" cx="113.065" cy="56.9869" r="11.709" gradientUnits="userSpaceOnUse">
		<stop  offset="0" style="stop-color:#FFFFFF"/>
		<stop  offset="0.2986" style="stop-color:#FFFEF8"/>
		<stop  offset="0.6501" style="stop-color:#FFFBEC"/>
		<stop  offset="1" style="stop-color:#FFF7DA"/>
	</radialGradient>
	<polygon class="st29" points="113.1,45.6 113.7,57.4 125.1,54.3 114,58.5 120.5,68.4 113.1,59.2 105.6,68.4 112.1,58.5 101.1,54.3 
		112.5,57.4 	"/>
	<radialGradient id="SVGID_28_" cx="83.0648" cy="73.3111" r="7.3118" gradientUnits="userSpaceOnUse">
		<stop  offset="0" style="stop-color:#FFFFFF"/>
		<stop  offset="0.6121" style="stop-color:#ED1B30"/>
		<stop  offset="0.8667" style="stop-color:#940038"/>
		<stop  offset="1" style="stop-color:#1D0000"/>
	</radialGradient>
	<circle class="st30" cx="83.1" cy="73.3" r="6.5"/>
	<radialGradient id="SVGID_29_" cx="383.064" cy="73.3111" r="7.312" gradientUnits="userSpaceOnUse">
		<stop  offset="0" style="stop-color:#FFFFFF"/>
		<stop  offset="0.6121" style="stop-color:#ED1B30"/>
		<stop  offset="0.8667" style="stop-color:#940038"/>
		<stop  offset="1" style="stop-color:#1D0000"/>
	</radialGradient>
	<circle class="st31" cx="383.1" cy="73.3" r="6.5"/>
	<polygon class="st22" points="83.1,65.7 85.3,70.2 90.3,70.9 86.7,74.4 87.5,79.4 83.1,77.1 78.6,79.4 79.5,74.4 75.9,70.9 
		80.8,70.2 	"/>
	<radialGradient id="SVGID_30_" cx="83.065" cy="72.5516" r="7.0253" gradientUnits="userSpaceOnUse">
		<stop  offset="0" style="stop-color:#FFFFFF"/>
		<stop  offset="0.2986" style="stop-color:#FFFEF8"/>
		<stop  offset="0.6501" style="stop-color:#FFFBEC"/>
		<stop  offset="1" style="stop-color:#FFF7DA"/>
	</radialGradient>
	<polygon class="st32" points="83.1,65.7 83.4,72.8 90.3,70.9 83.6,73.5 87.5,79.4 83.1,73.9 78.6,79.4 82.5,73.5 75.9,70.9 
		82.7,72.8 	"/>
	<polygon class="st22" points="303.1,25.4 309.2,37.9 323.1,39.9 313.1,49.6 315.4,63.4 303.1,56.9 290.7,63.4 293.1,49.6 
		283.1,39.9 296.9,37.9 	"/>
	<radialGradient id="SVGID_31_" cx="303.065" cy="44.3789" r="19.5152" gradientUnits="userSpaceOnUse">
		<stop  offset="0" style="stop-color:#FFFFFF"/>
		<stop  offset="0.2986" style="stop-color:#FFFEF8"/>
		<stop  offset="0.6501" style="stop-color:#FFFBEC"/>
		<stop  offset="1" style="stop-color:#FFF7DA"/>
	</radialGradient>
	<polygon class="st33" points="303.1,25.4 304.1,45 323.1,39.9 304.7,46.9 315.4,63.4 303.1,48.1 290.7,63.4 301.4,46.9 283.1,39.9 
		302.1,45 	"/>
	<polygon class="st22" points="353.1,45.6 356.8,53.1 365.1,54.3 359.1,60.1 360.5,68.4 353.1,64.5 345.6,68.4 347.1,60.1 
		341.1,54.3 349.4,53.1 	"/>
	<radialGradient id="SVGID_32_" cx="353.065" cy="56.9869" r="11.7093" gradientUnits="userSpaceOnUse">
		<stop  offset="0" style="stop-color:#FFFFFF"/>
		<stop  offset="0.2986" style="stop-color:#FFFEF8"/>
		<stop  offset="0.6501" style="stop-color:#FFFBEC"/>
		<stop  offset="1" style="stop-color:#FFF7DA"/>
	</radialGradient>
	<polygon class="st34" points="353.1,45.6 353.7,57.4 365.1,54.3 354,58.5 360.5,68.4 353.1,59.2 345.6,68.4 352.1,58.5 341.1,54.3 
		352.5,57.4 	"/>
	<polygon class="st22" points="383.1,65.7 385.3,70.2 390.3,70.9 386.7,74.4 387.5,79.4 383.1,77.1 378.6,79.4 379.5,74.4 
		375.9,70.9 380.8,70.2 	"/>
	<radialGradient id="SVGID_33_" cx="383.065" cy="72.5516" r="7.0256" gradientUnits="userSpaceOnUse">
		<stop  offset="0" style="stop-color:#FFFFFF"/>
		<stop  offset="0.2986" style="stop-color:#FFFEF8"/>
		<stop  offset="0.6501" style="stop-color:#FFFBEC"/>
		<stop  offset="1" style="stop-color:#FFF7DA"/>
	</radialGradient>
	<polygon class="st35" points="383.1,65.7 383.4,72.8 390.3,70.9 383.6,73.5 387.5,79.4 383.1,73.9 378.6,79.4 382.5,73.5 
		375.9,70.9 382.7,72.8 	"/>
</g>
</svg>
